<?xml version="1.0" encoding="utf-8"?>
<!-- Generator: Adobe Illustrator 15.0.0, SVG Export Plug-In  -->
<!DOCTYPE svg PUBLIC "-//W3C//DTD SVG 1.1//EN" "http://www.w3.org/Graphics/SVG/1.1/DTD/svg11.dtd" [
	<!ENTITY ns_flows "http://ns.adobe.com/Flows/1.0/">
]>
<svg version="1.1"
	 xmlns="http://www.w3.org/2000/svg" xmlns:xlink="http://www.w3.org/1999/xlink" xmlns:a="http://ns.adobe.com/AdobeSVGViewerExtensions/3.0/"
	 x="-10px" y="-10px" width="1920px" height="1080px" viewBox="0 0 1920 1080" enable-background="new 0 0 1920 1080"
	 xml:space="preserve">
<defs>
</defs>
<rect id="_x3C_PathBG_x5F_L_x3E__1_" fill="#E5801C" width="1219.638" height="1080"/>
<g id="_x3C_Group_BG_x5F_R_x3E__1_">
	<defs>
		<rect id="SVGID_3_" width="1920" height="1080"/>
	</defs>
	<clipPath id="SVGID_4_">
		<use xlink:href="#SVGID_3_"  overflow="visible"/>
	</clipPath>
	<path clip-path="url(#SVGID_4_)" fill="#453766" d="M1027.096,0.592c-23.772,8.043-44.817,18.466-65.901,32.114
		c-21.422,13.868-42.603,33.111-45.385,58.55c-3.158,28.882,18.416,54.355,40.835,72.727c22.419,18.371,48.316,35.187,59.81,61.853
		c12.175,28.25,4.865,61.892-11.243,88.082c-16.107,26.19-39.972,46.468-63.292,66.447c-25.991,22.267-53.707,48.307-56.594,82.489
		c-2.766,32.744,18.745,62.88,43.947,83.844c25.203,20.966,54.963,36.174,78.696,58.802c23.733,22.629,41.22,56.459,31.937,87.972
		c-8.304,28.186-34.949,46.206-59.734,61.849c-17.627,11.125-35.253,22.25-52.879,33.373c-13.852,8.742-28.723,18.774-33.513,34.481
		c-8.429,27.64,18.37,52.669,43.052,67.547c24.683,14.877,53.956,33.517,53.878,62.422c-0.05,18.1-12.209,33.595-23.711,47.529
		c-22.163,26.849-41.871,52.772-63.669,79.919h1019.09L1920,0.592h-885.742H1027.096z"/>
</g>
<g id="_x3C_Group_Fbg_x3E__1_">
	<defs>
		<rect id="SVGID_2_" width="1920" height="1080"/>
	</defs>
	<clipPath id="SVGID_5_">
		<use xlink:href="#SVGID_2_"  overflow="visible"/>
	</clipPath>
	<g id="_x3C_Group_F_x5F_BG_x5F_L_x3E__1_" display="none" clip-path="url(#SVGID_5_)">
		<path fill="#FFBA76" d="M55.345,367.464c8.557-11.016,13.563-24.36,17.392-37.773c9.505-33.307,12.456-68.471,8.634-102.897
			c1.887,34.858,7.421,69.519,16.482,103.232c3.38,12.577,7.413,25.343,15.476,35.572c8.062,10.227,21.014,17.527,33.879,15.503
			c-24.723-2.127-48.073,15.536-58.822,37.902c-10.749,22.365-10.996,48.372-7.789,72.979c0.284-22.413-3.63-44.87-11.479-65.864
			c-4.017-10.745-9.251-21.377-17.702-29.133c-7.492-6.877-18.126-11.381-28.374-9.566
			C35.778,386.579,47.701,377.302,55.345,367.464"/>
		<path fill="#FFBA76" d="M348.275,587.382c8.557-11.015,13.563-24.359,17.391-37.772c9.506-33.307,12.457-68.472,8.635-102.896
			c1.887,34.858,7.421,69.519,16.482,103.232c3.38,12.576,7.413,25.343,15.476,35.57c8.062,10.229,21.014,17.528,33.879,15.503
			c-24.723-2.126-48.073,15.537-58.822,37.903c-10.749,22.365-10.996,48.372-7.789,72.978c0.284-22.411-3.63-44.869-11.479-65.863
			c-4.017-10.745-9.251-21.377-17.702-29.134c-7.492-6.877-18.126-11.38-28.374-9.564
			C328.708,606.498,340.631,597.221,348.275,587.382"/>
		<path fill="#FFBA76" d="M306.08,700.306c3.229-4.156,5.118-9.19,6.562-14.251c3.586-12.567,4.7-25.835,3.258-38.823
			c0.712,13.152,2.8,26.229,6.218,38.949c1.275,4.745,2.797,9.563,5.839,13.421c3.042,3.859,7.929,6.613,12.783,5.85
			c-9.328-0.803-18.138,5.861-22.194,14.3c-4.055,8.438-4.149,18.251-2.938,27.534c0.107-8.455-1.37-16.929-4.331-24.85
			c-1.516-4.054-3.491-8.066-6.679-10.992c-2.827-2.594-6.839-4.293-10.706-3.608C298.698,707.519,303.196,704.018,306.08,700.306"
			/>
		<path fill="#FFBA76" d="M404.031,698.377c2.244-2.889,3.557-6.39,4.561-9.907c2.494-8.737,3.268-17.959,2.265-26.989
			c0.495,9.144,1.946,18.234,4.323,27.077c0.887,3.298,1.944,6.647,4.059,9.33c2.115,2.683,5.512,4.597,8.886,4.066
			c-6.485-0.559-12.609,4.074-15.428,9.94c-2.819,5.866-2.884,12.688-2.043,19.142c0.074-5.878-0.952-11.769-3.011-17.275
			c-1.053-2.819-2.426-5.606-4.643-7.641c-1.965-1.804-4.754-2.985-7.442-2.509C398.899,703.391,402.026,700.957,404.031,698.377"/>
		<path fill="#FFBA76" d="M123.31,294.465c2.245-2.89,3.558-6.39,4.562-9.907c2.493-8.737,3.267-17.959,2.265-26.989
			c0.494,9.143,1.946,18.234,4.322,27.077c0.887,3.298,1.945,6.647,4.059,9.33c2.115,2.682,5.512,4.596,8.887,4.065
			c-6.485-0.557-12.61,4.075-15.428,9.942c-2.82,5.866-2.885,12.687-2.043,19.141c0.074-5.879-0.953-11.768-3.011-17.275
			c-1.054-2.819-2.427-5.607-4.643-7.642c-1.966-1.804-4.755-2.984-7.443-2.508C118.178,299.479,121.306,297.045,123.31,294.465"/>
		<path fill="#FFBA76" d="M537.712,975.568c2.653-3.414,4.205-7.552,5.392-11.71c2.947-10.326,3.862-21.229,2.677-31.901
			c0.585,10.808,2.301,21.553,5.11,32.005c1.048,3.899,2.299,7.857,4.798,11.028c2.5,3.171,6.515,5.434,10.503,4.807
			c-7.665-0.659-14.904,4.816-18.236,11.75c-3.333,6.935-3.409,14.997-2.415,22.625c0.088-6.947-1.125-13.909-3.559-20.419
			c-1.245-3.331-2.868-6.627-5.488-9.032c-2.323-2.132-5.619-3.527-8.797-2.966C531.646,981.495,535.342,978.619,537.712,975.568"/>
		<rect x="303.683" y="752.956" fill="#DD7F22" width="212.65" height="327.044"/>
		<rect x="339.845" y="792.273" fill="#B2581B" width="51.002" height="78.438"/>
		<rect x="429.049" y="792.273" fill="#B2581B" width="51.002" height="78.438"/>
		<rect x="339.845" y="887.52" fill="#B2581B" width="51.002" height="78.438"/>
		<rect x="429.049" y="887.52" fill="#B2581B" width="51.002" height="78.438"/>
		<rect x="339.845" y="982.768" fill="#B2581B" width="51.002" height="78.438"/>
		<rect x="429.049" y="982.768" fill="#B2581B" width="51.002" height="78.438"/>
		<rect x="175.736" y="871.684" fill="#FFC033" width="66.24" height="7.836"/>
		<path fill="#FFBA76" d="M295.151,1027.881c2.245-2.89,3.558-6.39,4.562-9.907c2.493-8.737,3.267-17.959,2.264-26.989
			c0.495,9.144,1.946,18.234,4.323,27.077c0.887,3.298,1.945,6.646,4.059,9.329c2.115,2.683,5.512,4.598,8.886,4.066
			c-6.484-0.558-12.609,4.075-15.428,9.941s-2.884,12.688-2.042,19.142c0.074-5.879-0.953-11.769-3.012-17.275
			c-1.053-2.819-2.426-5.606-4.643-7.642c-1.965-1.805-4.754-2.984-7.442-2.509C290.019,1032.895,293.146,1030.461,295.151,1027.881
			"/>
		<rect x="48.597" y="822.696" fill="#FFC033" width="66.24" height="7.835"/>
		<rect x="48.597" y="685.353" fill="#FFC033" width="66.24" height="7.837"/>
		<rect x="175.736" y="685.353" fill="#FFC033" width="66.24" height="7.837"/>
		<rect x="175.736" y="822.696" fill="#FFC033" width="66.24" height="7.835"/>
		<rect x="48.597" y="960.038" fill="#FFC033" width="66.24" height="7.836"/>
		<rect x="175.736" y="960.038" fill="#FFC033" width="66.24" height="7.836"/>
		<rect x="48.597" y="596.999" fill="#FFC033" width="66.24" height="7.836"/>
		<rect x="175.736" y="596.999" fill="#FFC033" width="66.24" height="7.836"/>
		<rect x="48.597" y="734.342" fill="#FFC033" width="66.24" height="7.835"/>
		<rect x="175.736" y="734.342" fill="#FFC033" width="66.24" height="7.835"/>
		<rect x="48.597" y="871.684" fill="#FFC033" width="66.24" height="7.836"/>
		<rect x="48.597" y="1009.026" fill="#FFC033" width="66.24" height="7.835"/>
		<rect x="175.736" y="1009.026" fill="#FFC033" width="66.24" height="7.835"/>
		<path fill="#FFBA76" d="M508.522,948.052c2.245-2.889,3.558-6.39,4.562-9.907c2.493-8.737,3.267-17.959,2.265-26.989
			c0.494,9.144,1.946,18.234,4.322,27.077c0.887,3.298,1.945,6.647,4.059,9.33c2.115,2.683,5.512,4.597,8.886,4.066
			c-6.484-0.559-12.609,4.074-15.428,9.94s-2.884,12.688-2.042,19.142c0.074-5.878-0.953-11.769-3.011-17.275
			c-1.054-2.818-2.427-5.606-4.643-7.641c-1.966-1.805-4.755-2.985-7.443-2.509C503.391,953.065,506.518,950.632,508.522,948.052"/>
		<rect y="377.041" fill="#FF991F" width="338.689" height="26.491"/>
		<rect y="403.532" fill="#F47E27" width="303.683" height="676.468"/>
		<rect x="303.683" y="733.063" fill="#FF991F" width="250.732" height="19.894"/>
		<rect x="335.943" y="788.795" fill="#FFC033" width="58.807" height="6.956"/>
		<rect x="339.845" y="795.751" fill="#FFC033" width="3.038" height="71.482"/>
		<rect x="363.827" y="795.751" fill="#FFC033" width="3.038" height="71.482"/>
		<rect x="342.883" y="829.973" fill="#FFC033" width="44.926" height="3.039"/>
		<rect x="453.03" y="795.751" fill="#FFC033" width="3.039" height="71.482"/>
		<rect x="432.087" y="829.973" fill="#FFC033" width="44.925" height="3.039"/>
		<rect x="363.887" y="890.998" fill="#FFC033" width="3.038" height="71.482"/>
		<rect x="342.943" y="925.22" fill="#FFC033" width="44.926" height="3.039"/>
		<rect x="453.09" y="890.998" fill="#FFC033" width="3.039" height="71.482"/>
		<rect x="432.147" y="925.22" fill="#FFC033" width="44.925" height="3.039"/>
		<rect x="363.947" y="986.245" fill="#FFC033" width="3.038" height="71.481"/>
		<rect x="343.003" y="1020.467" fill="#FFC033" width="44.926" height="3.039"/>
		<rect x="453.15" y="986.245" fill="#FFC033" width="3.039" height="71.481"/>
		<rect x="432.208" y="1020.467" fill="#FFC033" width="44.925" height="3.039"/>
		<rect x="387.809" y="795.751" fill="#FFC033" width="3.038" height="71.482"/>
		<rect x="429.048" y="795.751" fill="#FFC033" width="3.039" height="71.482"/>
		<rect x="477.012" y="795.751" fill="#FFC033" width="3.039" height="71.482"/>
		<rect x="339.845" y="890.998" fill="#FFC033" width="3.038" height="71.482"/>
		<rect x="387.809" y="890.998" fill="#FFC033" width="3.038" height="71.482"/>
		<rect x="429.048" y="890.998" fill="#FFC033" width="3.039" height="71.482"/>
		<rect x="477.012" y="890.998" fill="#FFC033" width="3.039" height="71.482"/>
		<rect x="339.845" y="986.245" fill="#FFC033" width="3.038" height="71.481"/>
		<rect x="387.809" y="986.245" fill="#FFC033" width="3.038" height="71.481"/>
		<rect x="429.048" y="986.245" fill="#FFC033" width="3.039" height="71.481"/>
		<rect x="477.012" y="986.245" fill="#FFC033" width="3.039" height="71.481"/>
		<rect x="339.281" y="872.695" fill="#B2581A" width="55.469" height="4.812"/>
		<rect x="429.049" y="872.695" fill="#B2581A" width="54.904" height="4.812"/>
		<rect x="339.281" y="968.253" fill="#B2581A" width="55.469" height="4.813"/>
		<rect x="429.049" y="968.253" fill="#B2581A" width="54.904" height="4.813"/>
		<rect x="339.281" y="1062.811" fill="#B2581A" width="55.469" height="4.813"/>
		<rect x="429.049" y="1062.811" fill="#B2581A" width="54.904" height="4.813"/>
		<rect x="425.147" y="867.233" fill="#FFC033" width="58.806" height="6.956"/>
		<rect x="425.147" y="788.795" fill="#FFC033" width="58.806" height="6.956"/>
		<rect x="335.943" y="962.48" fill="#FFC033" width="58.807" height="6.955"/>
		<rect x="335.943" y="884.042" fill="#FFC033" width="58.807" height="6.956"/>
		<rect x="425.147" y="962.48" fill="#FFC033" width="58.806" height="6.955"/>
		<rect x="425.147" y="884.042" fill="#FFC033" width="58.806" height="6.956"/>
		<rect x="335.943" y="1057.728" fill="#FFC033" width="58.807" height="6.956"/>
		<rect x="335.943" y="979.289" fill="#FFC033" width="58.807" height="6.956"/>
		<rect x="425.147" y="1057.728" fill="#FFC033" width="58.806" height="6.956"/>
		<rect x="425.147" y="979.289" fill="#FFC033" width="58.806" height="6.956"/>
		<rect x="335.943" y="867.233" fill="#FFC033" width="58.807" height="6.956"/>
		<rect x="52.992" y="463.575" fill="#B2581A" width="57.45" height="88.354"/>
		<rect x="48.597" y="459.657" fill="#FFC033" width="66.24" height="7.835"/>
		<rect x="52.992" y="467.492" fill="#FFC033" width="3.408" height="80.52"/>
		<rect x="107.034" y="467.492" fill="#FFC033" width="3.408" height="80.52"/>
		<rect x="81.718" y="467.492" fill="#FFC033" width="3.407" height="80.52"/>
		<rect x="56.4" y="504.345" fill="#FFC033" width="50.635" height="3.407"/>
		<rect x="52.356" y="554.163" fill="#B2581A" width="62.481" height="5.421"/>
		<rect x="48.597" y="548.012" fill="#FFC033" width="66.24" height="7.835"/>
		<rect x="180.131" y="463.575" fill="#B2581A" width="57.45" height="88.354"/>
		<rect x="175.736" y="459.657" fill="#FFC033" width="66.24" height="7.835"/>
		<rect x="179.495" y="554.163" fill="#B2581A" width="62.481" height="5.421"/>
		<rect x="175.736" y="548.012" fill="#FFC033" width="66.24" height="7.835"/>
		<rect x="52.356" y="691.506" fill="#B2581A" width="62.481" height="5.42"/>
		<rect x="179.495" y="691.506" fill="#B2581A" width="62.481" height="5.42"/>
		<rect x="52.356" y="828.848" fill="#B2581A" width="62.481" height="5.421"/>
		<rect x="179.495" y="828.848" fill="#B2581A" width="62.481" height="5.421"/>
		<rect x="52.356" y="966.189" fill="#B2581A" width="62.481" height="5.421"/>
		<rect x="179.495" y="966.189" fill="#B2581A" width="62.481" height="5.421"/>
		<rect x="303.683" y="753.054" fill="#B2581B" width="212.65" height="9.138"/>
		<rect y="403.532" fill="#B2581B" width="303.683" height="14.973"/>
		<rect x="52.992" y="600.917" fill="#B2581B" width="57.45" height="88.354"/>
		<rect x="180.131" y="600.917" fill="#B2581B" width="57.45" height="88.354"/>
		<rect x="52.992" y="738.259" fill="#B2581B" width="57.45" height="88.355"/>
		<rect x="180.131" y="738.259" fill="#B2581B" width="57.45" height="88.355"/>
		<rect x="52.992" y="875.602" fill="#B2581B" width="57.45" height="88.354"/>
		<rect x="180.131" y="875.602" fill="#B2581B" width="57.45" height="88.354"/>
		<rect x="52.992" y="1012.943" fill="#B2581B" width="57.45" height="88.354"/>
		<rect x="180.131" y="1012.943" fill="#B2581B" width="57.45" height="88.354"/>
		<rect x="303.683" y="733.063" fill="#B2581B" width="18.594" height="346.937"/>
		<rect x="180.131" y="467.492" fill="#FFC033" width="3.408" height="80.52"/>
		<rect x="234.173" y="467.492" fill="#FFC033" width="3.408" height="80.52"/>
		<rect x="52.992" y="604.835" fill="#FFC033" width="3.408" height="80.519"/>
		<rect x="107.034" y="604.835" fill="#FFC033" width="3.408" height="80.519"/>
		<rect x="180.131" y="604.835" fill="#FFC033" width="3.408" height="80.519"/>
		<rect x="234.173" y="604.835" fill="#FFC033" width="3.408" height="80.519"/>
		<rect x="52.992" y="742.177" fill="#FFC033" width="3.408" height="80.521"/>
		<rect x="107.034" y="742.177" fill="#FFC033" width="3.408" height="80.521"/>
		<rect x="180.131" y="742.177" fill="#FFC033" width="3.408" height="80.521"/>
		<rect x="234.173" y="742.177" fill="#FFC033" width="3.408" height="80.521"/>
		<rect x="52.992" y="879.52" fill="#FFC033" width="3.408" height="80.52"/>
		<rect x="107.034" y="879.52" fill="#FFC033" width="3.408" height="80.52"/>
		<rect x="180.131" y="879.52" fill="#FFC033" width="3.408" height="80.52"/>
		<rect x="234.173" y="879.52" fill="#FFC033" width="3.408" height="80.52"/>
		<rect x="52.992" y="1016.861" fill="#FFC033" width="3.408" height="80.52"/>
		<rect x="107.034" y="1016.861" fill="#FFC033" width="3.408" height="80.52"/>
		<rect x="180.131" y="1016.861" fill="#FFC033" width="3.408" height="80.52"/>
		<rect x="234.173" y="1016.861" fill="#FFC033" width="3.408" height="80.52"/>
		<rect x="208.856" y="467.492" fill="#FFC033" width="3.407" height="80.52"/>
		<rect x="183.539" y="504.345" fill="#FFC033" width="50.635" height="3.407"/>
		<rect x="81.718" y="604.835" fill="#FFC033" width="3.407" height="80.519"/>
		<rect x="56.4" y="641.687" fill="#FFC033" width="50.635" height="3.407"/>
		<rect x="208.856" y="604.835" fill="#FFC033" width="3.407" height="80.519"/>
		<rect x="183.539" y="641.687" fill="#FFC033" width="50.635" height="3.407"/>
		<rect x="81.718" y="742.177" fill="#FFC033" width="3.407" height="80.521"/>
		<rect x="56.4" y="779.029" fill="#FFC033" width="50.635" height="3.406"/>
		<rect x="208.856" y="742.177" fill="#FFC033" width="3.407" height="80.521"/>
		<rect x="183.539" y="779.029" fill="#FFC033" width="50.635" height="3.406"/>
		<rect x="81.718" y="879.52" fill="#FFC033" width="3.407" height="80.52"/>
		<rect x="56.4" y="916.371" fill="#FFC033" width="50.635" height="3.407"/>
		<rect x="208.856" y="879.52" fill="#FFC033" width="3.407" height="80.52"/>
		<rect x="183.539" y="916.371" fill="#FFC033" width="50.635" height="3.407"/>
		<rect x="81.718" y="1016.861" fill="#FFC033" width="3.407" height="80.52"/>
		<rect x="56.4" y="1053.714" fill="#FFC033" width="50.635" height="3.407"/>
		<rect x="208.856" y="1016.861" fill="#FFC033" width="3.407" height="80.52"/>
		<rect x="183.539" y="1053.714" fill="#FFC033" width="50.635" height="3.407"/>
		<path fill="#B2581A" d="M387.473,586.404c8.271-7.816,21.694-2.879,22.512,8.617c0.244,3.426,4.601,4.808,6.522,1.766
			c10.38-16.437,29.546-25.368,48.789-23.284c4.473,0.484,4.439-6.519,0-7c-21.677-2.348-43.235,8.384-54.833,26.752
			c2.174,0.589,4.348,1.178,6.522,1.767c-1.248-17.54-21.574-25.747-34.462-13.566C379.242,584.556,384.199,589.499,387.473,586.404
			"/>
		<path fill="#B2581A" d="M480.403,616.699c7.687-2.896,15.731-0.821,21.035,5.459c1.443,1.708,4.486,1.15,5.497-0.709
			c5.226-9.602,16.832-13.445,26.853-9.318c4.162,1.715,5.976-5.056,1.861-6.75c-12.806-5.273-28.181,0.45-34.758,12.535
			c1.832-0.235,3.665-0.472,5.497-0.708c-6.752-7.994-18.048-10.951-27.846-7.259C474.366,611.523,476.175,618.292,480.403,616.699"
			/>
		<path fill="#B2581A" d="M323.055,373.946c-0.227-2.259-0.897-3.449-2.469-5.051c-2.876-2.928-4.42-5.549-3.312-9.868
			c0.85-3.315,3.208-5.973,4.227-9.224c0.715-2.281-0.406-8.282,1.172-9.57c-0.826,0.342-1.65,0.684-2.475,1.025
			c0.33,0.025,0.66,0.049,0.989,0.075c-0.824-0.342-1.65-0.684-2.474-1.026c1.884,1.577-0.369,6.819,0.147,9.16
			c0.554,2.517,2.296,3.922,3.86,5.793c2.169,2.597,3.391,7.293,1.255,10.416c-0.167,1.867-0.734,2.043-1.7,0.529l-0.318-2.156
			c-0.108-1.472-0.324-5.755,1.041-6.827c-1.134,0.3-2.27,0.6-3.405,0.9c-0.576-0.171,0.373,3.823,0.413,4.54
			c0.118,2.078-0.252,4.005-0.835,5.992c2.292,0.311,4.584,0.621,6.875,0.931c-0.042-0.675-0.084-1.35-0.125-2.025
			c-0.279-4.474-7.281-4.506-7,0c0.041,0.675,0.083,1.35,0.125,2.025c0.24,3.862,5.727,4.846,6.875,0.93
			c1.42-4.839,2.464-15.254-2.785-18.539c-6.29-3.935-8.112,6.574-8.204,10.362c-0.126,5.236,2.048,13.145,8.794,12.418
			c6.32-0.681,8.187-9.189,8.2-14.383c0.007-3.024-0.825-5.85-2.651-8.252c-0.845-1.111-2.993-2.487-3.419-3.785
			c-0.54-1.647,0.576-4.394,0.57-6.178c-0.017-4.562-3.814-10.348-8.703-6.875c-3.423,2.433-2.257,6.566-2.544,10.142
			c-0.344,4.271-3.554,7.641-4.655,11.742c-0.855,3.181-0.883,6.639,0.146,9.782c0.488,1.49,1.239,2.864,2.183,4.106
			c0.282,0.371,3.197,2.84,3.202,2.891C316.501,378.386,323.505,378.432,323.055,373.946"/>
		<path fill="#B2581A" d="M322.609,375.081c0.1,0.021,0.189,0.046,0.285,0.082c-0.279-0.118-0.557-0.235-0.836-0.353
			c0.122,0.055,0.231,0.12,0.339,0.199c-0.237-0.183-0.473-0.365-0.709-0.547c0.103,0.086,0.193,0.177,0.278,0.281
			c-0.182-0.236-0.364-0.473-0.547-0.709c0.08,0.11,0.146,0.22,0.204,0.342c-0.118-0.279-0.235-0.558-0.353-0.837
			c0.051,0.125,0.088,0.247,0.114,0.379c-0.041-0.311-0.083-0.621-0.125-0.931c0.018,0.133,0.022,0.259,0.011,0.393
			c0.042-0.311,0.084-0.62,0.125-0.931c-0.008,0.066-0.02,0.131-0.038,0.194c-0.212,0.906-0.123,1.884,0.353,2.698
			c0.425,0.725,1.257,1.418,2.092,1.608c0.896,0.204,1.901,0.16,2.697-0.352c0.75-0.485,1.398-1.199,1.608-2.092
			c0.315-1.342,0.147-2.687-0.558-3.881c-0.647-1.097-1.818-2.032-3.079-2.293c-0.926-0.191-1.862-0.136-2.697,0.353
			c-0.726,0.424-1.418,1.257-1.608,2.091c-0.204,0.896-0.16,1.902,0.352,2.698C320.993,374.211,321.72,374.897,322.609,375.081"/>
		<path fill="#B2581A" d="M317.114,336.585c-2.093,1.622-4.075,3.383-5.932,5.271c-0.567,0.577-0.725,1.445-0.413,2.185
			c0.308,0.731,1.023,1.222,1.827,1.23c0.565,0.004,1.127,0.044,1.686,0.12c-0.177-0.025-0.354-0.048-0.531-0.072
			c1.12,0.162,2.208,0.463,3.25,0.903c-0.159-0.068-0.319-0.135-0.478-0.202c0.296,0.128,0.587,0.266,0.874,0.414
			c0.928,0.479,2.213,0.271,2.736-0.718c0.484-0.916,0.275-2.224-0.718-2.736c-2.115-1.091-4.434-1.689-6.819-1.709
			c0.472,1.137,0.943,2.275,1.415,3.414c1.857-1.889,3.838-3.65,5.931-5.272c0.376-0.291,0.586-0.966,0.586-1.414
			c0-0.49-0.218-1.076-0.586-1.414c-0.381-0.351-0.881-0.61-1.414-0.586C317.962,336.024,317.557,336.241,317.114,336.585"/>
		<path fill="#B2581A" d="M280.175,373.946c0.005-0.051,2.921-2.52,3.203-2.891c0.943-1.242,1.695-2.616,2.183-4.106
			c1.029-3.144,1-6.601,0.146-9.782c-1.102-4.105-4.309-7.461-4.655-11.742c-0.29-3.571,0.882-7.715-2.544-10.142
			c-4.916-3.481-8.686,2.317-8.703,6.875c-0.007,1.784,1.109,4.531,0.569,6.178c-0.426,1.298-2.574,2.674-3.418,3.785
			c-1.822,2.394-2.658,5.24-2.651,8.252c0.013,5.215,1.882,13.705,8.199,14.383c6.761,0.726,8.938-7.181,8.794-12.418
			c-0.104-3.763-1.884-14.316-8.203-10.362c-5.261,3.293-4.214,13.671-2.786,18.539c1.139,3.885,6.633,2.965,6.875-0.93
			c0.042-0.675,0.084-1.35,0.126-2.025c0.279-4.498-6.722-4.481-7,0c-0.042,0.675-0.084,1.35-0.126,2.025
			c2.292-0.31,4.583-0.62,6.875-0.931c-0.583-1.987-0.953-3.914-0.835-5.992c0.041-0.717,0.989-4.711,0.413-4.54
			c-1.135-0.3-2.27-0.6-3.405-0.9c1.199,0.942,1.08,4.716,1.053,5.971c-0.034,1.611-0.125,4.732-1.734,3.254
			c-1.029-0.944-1.259-4.88-1.246-6.074c0.023-2.115,0.876-3.518,2.205-5.113c1.407-1.687,3.071-3.033,3.75-5.235
			c0.798-2.588-1.77-8.02,0.258-9.718c-0.825,0.342-1.65,0.684-2.475,1.026c0.33-0.026,0.66-0.05,0.989-0.075
			c-0.824-0.341-1.649-0.683-2.474-1.025c1.555,1.271,0.469,7.389,1.171,9.57c1.045,3.245,3.377,5.905,4.228,9.224
			c1.13,4.408-0.422,6.942-3.312,9.868c-1.569,1.589-2.242,2.787-2.47,5.051C272.726,378.425,279.729,378.394,280.175,373.946"/>
		<path fill="#B2581A" d="M271.761,368.331c-1.261,0.261-2.432,1.196-3.079,2.293c-0.704,1.194-0.873,2.539-0.558,3.881
			c0.197,0.837,0.877,1.664,1.608,2.092c0.751,0.438,1.856,0.625,2.697,0.352c1.861-0.602,2.894-2.394,2.445-4.306
			c-0.018-0.063-0.03-0.128-0.038-0.194c0.042,0.311,0.083,0.62,0.125,0.931c-0.011-0.134-0.007-0.26,0.011-0.393
			c-0.042,0.31-0.084,0.62-0.125,0.931c0.026-0.132,0.063-0.254,0.114-0.379c-0.117,0.279-0.235,0.558-0.353,0.837
			c0.059-0.122,0.125-0.233,0.204-0.342c-0.182,0.236-0.365,0.473-0.548,0.709c0.086-0.104,0.176-0.195,0.279-0.281
			c-0.236,0.182-0.472,0.364-0.708,0.547c0.108-0.079,0.216-0.144,0.338-0.199c-0.279,0.118-0.557,0.235-0.836,0.353
			c0.096-0.036,0.185-0.061,0.285-0.082c0.827-0.171,1.676-0.897,2.092-1.608c0.439-0.75,0.625-1.857,0.353-2.698
			c-0.274-0.846-0.799-1.664-1.609-2.091C273.594,368.227,272.722,368.133,271.761,368.331"/>
		<path fill="#B2581A" d="M276.289,339.413c2.093,1.622,4.075,3.383,5.932,5.271c0.471-1.138,0.943-2.276,1.414-3.414
			c-2.384,0.021-4.703,0.619-6.819,1.709c-0.932,0.481-1.281,1.863-0.717,2.737c0.612,0.95,1.739,1.231,2.736,0.718
			c0.287-0.148,0.577-0.286,0.873-0.415l-0.478,0.203c1.043-0.44,2.131-0.742,3.25-0.903c-0.177,0.024-0.354,0.047-0.531,0.072
			c0.56-0.076,1.121-0.116,1.686-0.121c0.801-0.007,1.518-0.497,1.827-1.229c0.312-0.738,0.156-1.607-0.413-2.186
			c-1.857-1.887-3.838-3.648-5.931-5.27c-0.439-0.341-0.834-0.586-1.414-0.586c-0.491,0-1.077,0.218-1.415,0.586
			c-0.35,0.381-0.609,0.881-0.585,1.414C275.726,338.489,275.88,339.098,276.289,339.413"/>
	</g>
	<g id="_x3C_Group_F_x5F_BG_x5F_R_x3E__1_" display="none" clip-path="url(#SVGID_5_)">
		<path fill="#715C93" d="M1617.642,386.832c9.413,6.243,18.903,12.37,28.12,18.903c9.238,6.547,18.271,13.39,27.053,20.539
			c17.395,14.162,33.829,29.513,49.146,45.901c8.635,9.238,16.976,18.753,25.036,28.496c0.691,0.837,2.191-0.301,1.52-1.173
			c-13.848-17.957-29.239-34.68-45.69-50.278c-16.352-15.504-33.76-29.938-52.109-43.02c-10.41-7.422-21.062-14.578-32.268-20.747
			C1617.541,384.953,1616.787,386.267,1617.642,386.832"/>
		<path fill="#715C93" d="M1617.594,388.395c6.441-0.846,12.766-0.937,19.195,0.106c6.23,1.01,12.305,2.814,18.276,4.826
			c11.162,3.76,22.156,8.173,33.082,12.568c20.878,8.397,41.486,17.781,60.278,30.262c10.457,6.945,20.191,14.902,29.006,23.843
			c1.131,1.148,2.858-0.591,1.764-1.762c-15.542-16.625-34.991-29.187-55.205-39.38c-10.192-5.14-20.657-9.726-31.239-13.997
			c-10.892-4.397-21.877-8.653-32.979-12.489c-6.95-2.402-14.028-4.478-21.317-5.541c-6.893-1.007-14.213-1.33-21.015,0.429
			C1616.829,387.417,1616.934,388.481,1617.594,388.395"/>
		<path fill="#715C93" d="M1615.849,390.698c0.233,0,0.233-0.363,0-0.363C1615.614,390.335,1615.614,390.698,1615.849,390.698"/>
		<path fill="#715C93" d="M1616.924,390.882c0.226-1.333,1.628-2.096,2.916-1.807c1.486,0.335,2.592,1.668,3.45,2.828
			c1.734,2.346,3.336,4.794,4.971,7.21c3.398,5.026,6.595,10.187,9.641,15.433c6.104,10.512,11.503,21.426,16.466,32.519
			c5.005,11.188,9.526,22.586,13.833,34.058c4.385,11.681,8.742,23.399,12.674,35.24c2.277,6.856,4.344,13.791,5.902,20.848
			c0.764,3.457,1.408,6.941,1.886,10.449c0.5,3.676,0.718,7.379,1.199,11.055c0.145,1.099,1.67,1.154,1.754,0
			c0.482-6.648-0.801-13.567-2.13-20.064c-1.353-6.613-3.174-13.122-5.221-19.55c-4.005-12.585-8.635-24.998-13.271-37.363
			c-8.947-23.863-18.797-47.511-31.874-69.447c-3.638-6.101-7.52-12.084-11.763-17.783c-1.626-2.184-3.48-5.523-6.247-6.414
			c-1.952-0.629-4.742,0.318-5.051,2.55C1615.981,391.202,1616.826,391.457,1616.924,390.882"/>
		<path fill="#715C93" d="M1618.663,388.843c6.149,23.151,11.622,46.413,15.479,70.069c3.863,23.688,6.239,47.582,7.285,71.558
			c0.584,13.384,0.72,26.796,0.454,40.189c-0.022,1.089,1.648,1.084,1.688,0c0.875-24.081,0.118-48.187-2.145-72.175
			c-2.241-23.745-5.871-47.404-11.1-70.678c-2.969-13.218-6.302-26.396-10.423-39.305
			C1619.652,387.716,1618.449,388.038,1618.663,388.843"/>
		<path fill="#715C93" d="M1617.688,410.18c1.05-0.081,2.025-0.038,3,0.412c1.008,0.466,1.517,1.192,2.177,2.032
			c1.237,1.575,2.61,0.497,3.907-0.393c4.038-2.773,8.001-5.656,11.874-8.655c3.276-2.537,6.147-5.288,7.131-9.456
			c0.523-2.219,0.717-4.492,1.39-6.68c0.7-2.271,1.765-4.428,3.051-6.424c0.542-0.842-0.758-1.56-1.323-0.773
			c-2.613,3.63-3.67,7.568-4.452,11.904c-0.403,2.234-1.042,4.294-2.49,6.088c-1.202,1.489-2.689,2.726-4.185,3.907
			c-3.712,2.932-7.53,5.734-11.407,8.442c-0.468,0.326-1.035,0.888-1.566,1.088c-0.556,0.21-0.582,0.12-1.002-0.353
			c-0.556-0.625-1.049-1.197-1.785-1.624c-1.317-0.766-3.008-1.028-4.45-0.484C1617.075,409.392,1617.09,410.227,1617.688,410.18"/>
		<path fill="#715C93" d="M1668.378,381.869c-4.472,0.169-6.794,4.446-7.455,8.386c-0.44,2.618-0.454,5.375-1.374,7.89
			c-0.877,2.398-2.758,4.077-4.457,5.894c-1.618,1.732-2.8,3.536-3.465,5.826c-0.366,1.262-0.672,2.525-1.396,3.642
			c-0.613,0.947-1.441,1.738-2.292,2.469c-1.666,1.431-3.534,2.644-5.009,4.288c-0.862,0.96-1.525,2.184-2.635,2.889
			c-1.209,0.768-2.836,0.985-4.201,1.334c-6.89,1.769-13.832,3.409-20.658,5.411c-1.111,0.326-0.647,1.972,0.477,1.729
			c6.065-1.316,12.069-2.942,18.087-4.461c1.443-0.365,2.889-0.733,4.334-1.096c1.256-0.315,2.489-0.628,3.536-1.428
			c0.946-0.72,1.573-1.711,2.335-2.606c0.771-0.904,1.669-1.685,2.592-2.429c1.72-1.386,3.545-2.669,4.877-4.46
			c1.483-1.995,1.602-4.412,2.678-6.576c1.069-2.152,2.998-3.694,4.56-5.469c1.651-1.875,2.704-3.958,3.16-6.423
			c0.506-2.74,0.323-5.609,1.12-8.291c0.73-2.46,2.361-5.346,5.187-5.571C1668.979,382.77,1668.994,381.847,1668.378,381.869"/>
		<path fill="#715C93" d="M1618.619,443.159c3.744,1.261,7.632,2.082,11.474,2.985c2.185,0.514,6.774,1.044,7.104,3.954
			c0.074,0.661,0.741,1.206,1.395,0.801c9.696-5.992,15.538-15.867,21.106-25.487c1.638-2.83,3.264-5.676,4.684-8.623
			c1.22-2.531,2.2-5.151,3.181-7.78c0.93-2.494,1.896-4.986,3.264-7.277c0.641-1.074,1.366-2.093,2.227-3.003
			c0.42-0.446,0.886-0.836,1.334-1.253c0.623-0.579,0.58-0.97,0.566-1.842c-0.033-2.093-0.156-4.259,0.365-6.306
			c0.586-2.3,1.6-4.501,2.327-6.758c0.344-1.064-1.242-1.443-1.641-0.453c-0.917,2.286-2.044,4.587-2.623,6.991
			c-0.582,2.41-0.461,4.974-0.41,7.43c0.098-0.234,0.195-0.47,0.294-0.705c-2.996,2.427-4.826,5.796-6.262,9.31
			c-1.633,3.997-2.885,8.106-4.808,11.987c-2.036,4.111-4.429,8.06-6.789,11.992c-2.209,3.679-4.524,7.322-7.214,10.673
			c-2.978,3.709-6.421,7.078-10.537,9.503c0.465,0.266,0.93,0.533,1.396,0.8c-0.3-3.259-3.566-4.62-6.388-5.248
			c-4.584-1.02-9.256-2.05-13.928-2.559C1618.218,442.235,1618.173,443.009,1618.619,443.159"/>
		<path fill="#715C93" d="M1689.824,378.771c-1.813,5.161-2.393,10.899-2.544,16.341c-0.155,5.54,0.342,11.08,1.415,16.515
			c0.15-0.366,0.298-0.733,0.447-1.099c-4.797,3.532-4.749,9.767-6.458,14.96c-1.919,5.834-7.16,9.199-11.608,13.002
			c-2.229,1.904-4.325,4-5.826,6.538c-1.62,2.737-2.537,5.806-3.897,8.668c-1.564,3.29-3.819,5.64-6.854,7.629
			c-3.007,1.969-6.13,3.809-9.325,5.453c-3.633,1.87-7.463,3.469-11.495,4.224c-4.014,0.753-7.766,0.284-11.596-1.044
			c-0.915-0.319-1.519,1.117-0.66,1.566c6.252,3.271,13.926,1.665,20.119-0.899c3.402-1.41,6.646-3.16,9.809-5.041
			c2.972-1.767,6.151-3.532,8.541-6.077c2.271-2.418,3.521-5.481,4.752-8.508c1.263-3.107,2.66-5.993,4.994-8.444
			c4.142-4.35,9.698-7.296,13.037-12.409c1.822-2.789,2.511-6.023,3.236-9.225c0.71-3.129,1.52-6.657,4.216-8.712
			c0.371-0.283,0.542-0.631,0.447-1.099c-1.064-5.265-1.544-10.627-1.417-15.998c0.128-5.423,1.097-10.652,1.958-15.985
			C1691.25,378.287,1690.114,377.946,1689.824,378.771"/>
		<path fill="#715C93" d="M1623.559,484.803c3.253-0.131,6.488-0.038,9.737,0.143c1.592,0.088,3.181,0.215,4.767,0.381
			c1.633,0.171,3.295,0.511,4.936,0.545c0.772,0.017,0.94-1.162,0.184-1.351c-1.525-0.382-3.175-0.434-4.738-0.541
			c-1.65-0.114-3.304-0.185-4.957-0.213c-3.309-0.058-6.632,0.138-9.928,0.413C1623.164,484.213,1623.152,484.82,1623.559,484.803"
			/>
		<path fill="#715C93" d="M1644.002,485.831c3.713-1.719,6.976-4.478,10.036-7.154c3.249-2.842,6.342-5.866,9.36-8.949
			c1.54-1.571,2.974-3.213,4.521-4.787c1.594-1.62,3.144-3.285,4.696-4.943c3.052-3.262,6.063-6.562,9.034-9.897
			c5.991-6.73,11.78-13.651,17.414-20.683c2.675-3.339,5.49-6.65,7.899-10.188c1.146-1.682,2.06-3.517,2.398-5.541
			c0.356-2.135,0.189-4.292,0.069-6.439c-0.563-10.095,0.855-20.197,4.137-29.758c0.371-1.077-1.338-1.542-1.702-0.47
			c-2.778,8.15-4.243,16.735-4.274,25.348c-0.008,2.171,0.118,4.331,0.233,6.498c0.116,2.199,0.138,4.437-0.668,6.524
			c-0.774,2.006-2.153,3.743-3.454,5.43c-1.393,1.805-2.797,3.601-4.213,5.388c-5.453,6.883-11.099,13.598-16.869,20.216
			c-2.884,3.308-5.809,6.582-8.773,9.82c-2.96,3.232-6.104,6.328-8.956,9.656c-0.804,0.938-1.859,1.696-2.732,2.587
			c-0.878,0.896-1.749,1.798-2.625,2.695c-1.63,1.668-3.236,3.359-4.878,5.015c-3.395,3.424-7.021,6.321-11.028,8.992
			C1643.228,485.459,1643.572,486.03,1644.002,485.831"/>
		<path fill="#715C93" d="M1627.986,503.104c1.977,0.03,3.954,0.104,5.931,0.083c1.771-0.02,3.896,0.29,5.604-0.282
			c1.4-0.47,2.076-1.745,2.833-2.904c0.654-1.001,1.459-1.89,2.391-2.641c3.919-3.154,9.393-3.797,14.153-4.822
			c2.586-0.557,5.164-1.188,7.61-2.212c1.037-0.435,2.039-0.932,2.997-1.523c0.514-0.317,1.056-0.641,1.515-1.038
			c0.68-0.587,0.761-1.516,0.945-2.366c0.75-3.444,1.785-6.714,3.53-9.795c1.822-3.216,4.233-6.013,6.913-8.542
			c6.005-5.668,13.007-10.374,20.237-14.323c1.548-0.846,0.166-3.216-1.384-2.367c-7.48,4.1-14.74,9.027-20.926,14.928
			c-5.761,5.494-10.886,13.234-11.076,21.456c0.114-0.275,0.229-0.55,0.343-0.827c-8.253,6.917-22.339,3.094-28.814,12.803
			c-0.553,0.828-0.955,1.883-1.915,2.309c-1.006,0.449-2.397,0.335-3.474,0.403c-2.477,0.154-4.941,0.382-7.413,0.596
			C1627.313,502.097,1627.29,503.094,1627.986,503.104"/>
		<path fill="#715C93" d="M1721.89,420.405c-2.564,1.914-4.578,4.937-6.274,7.611c-1.85,2.915-3.388,6.025-4.656,9.233
			c-1.26,3.186-2.209,6.486-2.83,9.856c-0.304,1.647-0.534,3.309-0.689,4.976c-0.154,1.646-0.455,3.552,0.016,5.161
			c0.252,0.863,1.483,0.853,1.741,0c0.45-1.496,0.311-3.202,0.449-4.752c0.15-1.673,0.388-3.336,0.705-4.984
			c0.607-3.158,1.497-6.268,2.642-9.273c1.159-3.043,2.614-5.974,4.315-8.752c0.856-1.399,1.755-2.774,2.724-4.1
			c0.954-1.305,2.065-2.553,2.898-3.937C1723.298,420.832,1722.521,419.935,1721.89,420.405"/>
		<path fill="#715C93" d="M1725.05,421.942c1.765-4.15,3.051-8.5,4.708-12.699c1.688-4.278,3.533-8.491,5.562-12.619
			c4.05-8.242,8.893-15.917,14.056-23.493c1.001-1.468-1.317-2.732-2.344-1.37c-5.516,7.325-10.15,15.455-14.166,23.683
			c-1.989,4.076-3.824,8.234-5.457,12.467c-1.655,4.29-3.396,8.714-4.211,13.251C1723.012,422.196,1724.566,423.079,1725.05,421.942
			"/>
		<path fill="#715C93" d="M1777.601,367.39c-2.832,0.516-4.812,2.6-6.685,4.64c-1.846,2.009-3.55,4.16-5.146,6.373
			c-3.313,4.596-6.022,9.565-8.194,14.796c-4.321,10.408-6.328,21.787-5.744,33.046c0.163,3.151,0.529,6.295,1.096,9.398
			c0.546,2.994,1.466,5.908,4.05,7.741c1.409,1.001,2.698-1.294,1.344-2.299c-2.032-1.507-2.483-4.424-2.889-6.746
			c-0.456-2.612-0.748-5.249-0.896-7.896c-0.288-5.146-0.044-10.335,0.758-15.427c1.63-10.351,5.341-20.284,10.918-29.155
			c1.564-2.49,3.276-4.887,5.144-7.16c1.904-2.318,3.911-4.92,6.73-6.161C1778.781,368.235,1778.252,367.271,1777.601,367.39"/>
		<path fill="#715C93" d="M1738.013,427.025c-1.597,1.025-2.611,2.978-3.629,4.53c-1.063,1.621-2.088,3.266-3.053,4.947
			c-2.003,3.489-3.827,7.082-5.464,10.757c-1.615,3.631-3.14,7.348-4.307,11.151c-1.146,3.738-1.763,7.77-0.446,11.547
			c0.536,1.537,2.994,0.877,2.455-0.677c-1.274-3.671-0.438-7.463,0.728-11.049c1.187-3.647,2.627-7.226,4.211-10.717
			c1.539-3.392,3.238-6.713,5.091-9.945c0.927-1.616,1.87-3.223,2.856-4.803c0.94-1.507,2.318-3.092,2.721-4.846
			C1739.323,427.28,1738.621,426.633,1738.013,427.025"/>
		<path fill="#715C93" d="M1734.88,481.047c-4.59-1.314-9.218,0.428-13.208,2.694c-4.018,2.283-7.802,5.109-11.407,7.989
			c-7.329,5.853-13.975,12.56-19.758,19.945c-3.108,3.97-6.878,8.517-5.589,13.934c0.273,1.152,2.064,0.897,2.055-0.278
			c-0.021-2.38,0.225-4.518,1.403-6.635c1.061-1.904,2.454-3.646,3.787-5.364c2.635-3.392,5.458-6.641,8.441-9.732
			c5.994-6.211,12.663-11.833,19.851-16.617c4.254-2.831,8.983-5.335,14.257-4.699
			C1735.434,482.371,1735.541,481.236,1734.88,481.047"/>
		<path fill="#715C93" d="M1679.527,508.497c-7.363-1.079-14.996,1.134-21.293,4.941c-3.164,1.914-6.079,4.289-8.557,7.038
			c-1.211,1.346-2.329,2.784-3.322,4.298c-0.981,1.497-2.316,3.354-2.587,5.154c-0.143,0.952,1.043,2.008,1.835,1.068
			c1.099-1.305,1.738-3.032,2.668-4.469c0.965-1.492,2.046-2.904,3.234-4.224c2.293-2.551,4.946-4.754,7.872-6.545
			c6.061-3.711,12.858-5.285,19.909-5.489C1680.254,510.242,1680.575,508.65,1679.527,508.497"/>
		<path fill="#715C93" d="M1644.545,532.395c-2.256-1.925-5.874-2.419-8.737-2.145c-2.916,0.28-6.241,1.336-8.252,3.597
			c-0.575,0.648,0.153,1.705,0.952,1.235c1.145-0.676,2.219-1.39,3.477-1.853c1.271-0.469,2.586-0.804,3.94-0.901
			c1.308-0.095,2.633-0.039,3.917,0.232c1.344,0.285,2.563,0.861,3.856,1.289C1644.503,534.115,1645.207,532.958,1644.545,532.395"
			/>
		<path fill="#715C93" d="M1723.649,373.496c-0.285,4.147-0.162,8.321-0.149,12.477c0.013,4.159,0.025,8.318,0.038,12.476
			c0.025,8.318,0.013,16.637,0.015,24.954c0.004,16.47,0.007,32.94,0.011,49.408c0.002,9.313-0.151,18.641,0.115,27.949
			c0.034,1.229,1.876,1.232,1.911,0c0.238-8.312,0.112-16.638,0.114-24.953c0.002-8.319,0.004-16.636,0.006-24.955
			c0.003-16.469-0.017-32.939,0.012-49.408c0.008-4.658,0.028-9.316,0.042-13.974c0.015-4.652,0.175-9.331-0.145-13.974
			C1725.532,372.229,1723.736,372.227,1723.649,373.496"/>
		<rect x="1604.634" y="341.118" fill="#300742" width="26.631" height="607.405"/>
		<path fill="#300742" d="M1666.049,451.5l-1.923,18.491c-32.347-0.618-64.691-1.235-97.037-1.853
			c-0.458-6.581-0.916-13.162-1.374-19.744C1599.159,449.43,1632.604,450.465,1666.049,451.5"/>
		<path fill="#300742" d="M1671.028,503.756c-36.38-0.815-72.76-1.63-109.14-2.445l0.572,19.845
			c36.948,0.774,73.896,1.547,110.844,2.321C1672.546,516.903,1671.787,510.329,1671.028,503.756"/>
		<path fill="#620A7F" d="M1671.839,1032.86V1080h-172.935V854.72h172.935v145.851c-3.126,0.52-5.602,7.55-5.602,16.149
			c0,4.46,0.669,8.511,1.752,11.431C1668.986,1030.86,1670.335,1032.61,1671.839,1032.86 M1539.316,1005.28
			c-1.084-2.931-2.575-4.74-4.228-4.74h-9.067c-3.302,0-5.977,7.24-5.977,16.18c0,4.46,0.669,8.511,1.751,11.431
			c1.083,2.93,2.575,4.739,4.226,4.739h9.067c3.304,0,5.978-7.239,5.978-16.17C1541.066,1012.25,1540.398,1008.2,1539.316,1005.28
			 M1575.863,1005.28c-1.083-2.931-2.575-4.74-4.227-4.74h-9.066c-3.304,0-5.979,7.24-5.979,16.18c0,4.46,0.669,8.511,1.752,11.431
			c1.082,2.93,2.574,4.739,4.227,4.739h9.066c3.303,0,5.978-7.239,5.978-16.17C1577.614,1012.25,1576.945,1008.2,1575.863,1005.28
			 M1612.41,1005.28c-1.082-2.931-2.575-4.74-4.227-4.74h-9.066c-3.299,0-5.978,7.24-5.978,16.18c0,4.46,0.668,8.511,1.751,11.431
			c1.082,2.93,2.575,4.739,4.227,4.739h9.066c3.304,0,5.979-7.239,5.979-16.17C1614.162,1012.25,1613.493,1008.2,1612.41,1005.28
			 M1648.958,1005.28c-1.079-2.931-2.575-4.74-4.224-4.74h-9.07c-3.299,0-5.975,7.24-5.975,16.18c0,4.46,0.67,8.511,1.752,11.431
			c1.08,2.93,2.571,4.739,4.223,4.739h9.07c3.3,0,5.975-7.239,5.975-16.17C1650.709,1012.25,1650.04,1008.2,1648.958,1005.28"/>
		<path fill="none" stroke="#300742" stroke-miterlimit="10" d="M1906.598,661.2c-27.88-1.179-55.694-4.254-83.105-9.512
			c-27.25-5.228-54.101-12.617-80.073-22.398c-24.149-9.096-47.703-20.183-69.162-34.6c-20.946-14.072-39.818-31.421-54.061-52.35
			c-13.786-20.259-23.315-43.718-25.548-68.234c-0.275-3.022-0.439-6.053-0.488-9.088"/>
		<path fill="none" stroke="#300742" stroke-miterlimit="10" d="M1908.055,690.535c-39.973-4.933-78.229-15.863-114.663-36.813
			c-0.91-0.91-1.821-1.82-2.733-2.731c-30.968-17.307-54.649-40.988-78.332-66.492c-11.841-13.663-21.86-26.415-30.058-41.898
			c-11.841-22.771-20.95-47.365-20.407-73.271"/>
		<path fill="none" stroke="#300742" stroke-miterlimit="10" d="M1634.83,469.304c8.139,20.399,18.164,40.092,30.308,58.407
			c12.035,18.15,26.194,34.979,42.638,49.298c17.065,14.861,36.401,26.465,57.478,34.679c23.528,9.171,48.273,14.953,71.439,25.094
			c22.986,10.063,42.504,25.576,62.791,40.036c2.509,1.788,5.032,3.556,7.577,5.288"/>
		<path fill="none" stroke="#300742" stroke-miterlimit="10" d="M1908.224,707.359c-57.448-21.757-103.901-59.102-153.087-98.27
			c-0.911-0.91-1.822-2.731-2.733-3.643c-15.484-11.841-28.236-22.771-42.81-35.523c-17.307-15.483-33.701-30.058-51.008-46.454
			c-12.752-13.662-25.504-25.503-38.523-38.484"/>
		<path fill="none" stroke="#300742" stroke-miterlimit="10" d="M1619.477,521.676c1.765,20.013,1.765,40.962,5.408,61.001
			c38.256,37.345,83.798,67.402,133.895,88.352c48.275,20.039,98.372,29.147,149.45,33.46"/>
		<path fill="none" stroke="#300742" stroke-miterlimit="10" d="M1602.171,466.267c4.45-2.588,10.461-0.085,13.466,4.096
			c3.004,4.181,3.764,9.517,4.426,14.624c4.946,38.192,22.729,88.963-0.369,106.789c-18.433,14.226-60.455,2.833-67.875-18.044
			c-4.071-11.459,2.927-24.563,7.392-33.954c5.764-12.124,15.849-21.552,25.701-30.669c11.215-10.379,22.429-20.757,33.644-31.136
			c3.118,17.272,8.188,34.174,10.618,51.555s2.052,35.723-5.315,51.653c-7.366,15.929-22.845,28.905-40.386,29.487
			c-2.726,0.09-5.663-0.188-7.758-1.933c-2.3-1.917-3.014-5.095-3.563-8.038c-8.949-48.058-10.105-97.558-3.409-145.98
			c1.386-10.018,4.139-21.452,13.221-25.903c8.811-4.318,19.971,0.55,25.676,8.532c5.705,7.983,7.157,18.185,7.818,27.974
			c2.857,42.313-5.875,84.417-11.251,126.484c-1.716,13.425-3.341,27.563-11.256,38.54c-7.915,10.979-24.534,16.984-35.325,8.818
			c-3.734-2.826-6.285-6.921-8.463-11.066c-14.035-26.721-15.379-59.771-3.558-87.543c11.822-27.771,36.573-49.715,65.563-58.122
			c7.67,27.798,11.711,56.594,11.988,85.429c0.201,20.655-4.088,45.246-22.915,53.742c-18.157,8.194-40.443-5.12-48.163-23.484
			c-7.719-18.363-4.386-39.452,1.307-58.542c8.686-29.129,26.722-59.977,56.626-65.415c2.951-0.538,6.202-0.75,8.748,0.835
			c3.607,2.248,4.382,7.084,4.725,11.321c2.704,33.423,0.703,67.223-5.925,100.093c-1.479,7.337-3.536,15.204-9.39,19.868
			c-8.407,6.7-21.578,3.613-29.185-3.984c-7.606-7.599-10.929-18.389-13.588-28.806c-6.873-26.93-11.124-55.021-7.106-82.521
			c0.964-6.599,2.458-13.276,5.965-18.95c7.957-12.874,24.036-17.66,38.69-21.437c5.502-1.418,11.862-2.689,16.442,0.671
			c3.644,2.674,4.931,7.456,5.817,11.889c7.189,36,3.653,73.23-1.429,109.588c-2.958,21.169-7.665,44.412-24.728,57.288
			c-7.114,5.369-17.766,8.117-24.641,2.444c-2.777-2.292-4.484-5.605-5.993-8.875c-20.122-43.6-17.703-93.946-12.459-141.676
			c0.726-6.603,1.778-13.784,6.623-18.328c3.511-3.292,8.417-4.583,13.149-5.458c11.063-2.044,22.423-2.46,33.606-1.231
			c4.052,0.445,8.307,1.206,11.407,3.852c4.154,3.545,5.162,9.472,5.755,14.901c4.719,43.168,0.116,86.814-6.541,129.726
			c-2.031,13.089-6.273,28.58-18.943,32.439c-7.644,2.329-16.146-0.78-22.099-6.111c-5.952-5.332-9.788-12.591-13.138-19.847
			c-10.855-23.524-17.907-48.8-20.797-74.548c-0.782-6.965-1.144-14.49,2.499-20.477c8.376-13.765,34.601-8.549,38.428-7.811"/>
		<path fill="none" stroke="#300742" stroke-miterlimit="10" d="M1630.754,508.3c3.99,0.876,6.328,4.934,8.023,8.649
			c13.254,29.035,17.351,62.168,11.568,93.556c-0.31,1.68-0.708,3.471-1.955,4.638c-1.851,1.731-4.967,1.365-6.992-0.157
			c-2.024-1.522-3.198-3.898-4.216-6.219c-9.829-22.399-11.741-48.182-5.323-71.785c2.521,0.951,3.865,3.638,4.94,6.108
			c13.676,31.408,22.182,65.06,25.073,99.192c0.176,2.067,0.181,4.499-1.455,5.775c-1.457,1.138-3.565,0.799-5.301,0.161
			c-6.285-2.31-10.979-7.597-14.848-13.063c-15.904-22.476-22.103-51.582-16.736-78.588c0.974-4.898,2.92-10.424,7.631-12.085
			c6.607-2.329,12.652,4.542,15.918,10.741c14.608,27.739,19.471,60.491,13.552,91.278c-12.091-3.025-20.69-13.526-27.641-23.871
			c-12.697-18.896-23.218-40.232-23.982-62.984c-0.164-4.855,0.367-10.274,3.974-13.53c2.476-2.234,5.926-2.983,9.226-3.467
			c6.067-0.889,12.228-1.164,18.351-0.822c3.723,0.208,7.602,0.704,10.676,2.813c5.164,3.538,6.571,10.433,7.322,16.646
			c3.36,27.807,2.021,56.176-3.943,83.542c-4.747-0.928-8.023-5.181-10.677-9.226c-18.61-28.373-29.104-62.006-29.934-95.928
			c-0.046-1.867-0.009-3.902,1.159-5.361c0.859-1.076,2.195-1.646,3.51-2.056c10.632-3.319,22.578,1.679,29.983,9.998
			c7.406,8.319,10.973,19.371,13.025,30.317c3.244,17.311,3.163,35.237-0.237,52.518c-0.461,2.339-1.104,4.865-3.002,6.309
			c-4.248,3.23-9.957-1.47-12.925-5.904c-16.7-24.95-24.214-55.904-20.813-85.733"/>
		<line fill="#1E062A" x1="1619.679" y1="444.303" x2="1619.679" y2="442.156"/>
		<path fill="#300742" d="M1624.582,433.465c-1.864-6.419-0.707-12.499,3.13-17.939c-2.741-0.359-5.483-0.717-8.225-1.076
			c2.182,9.59,1.991,19.145-0.492,28.657c2.946,0.398,5.893,0.796,8.839,1.196c-0.907-9.083-1.23-18.199-0.828-27.321
			c0.299-6.761-0.582-19.313,5.19-24.154c2.589-2.171,6.597-2.535,9.786-3.14c4.216-0.8,8.435-1.588,12.651-2.382
			c9.083-1.71,18.167-3.42,27.25-5.13c35.685-6.719,71.368-13.437,107.052-20.155c5.686-1.071,3.278-9.746-2.392-8.679
			c-38.929,7.329-77.856,14.658-116.785,21.987c-9.731,1.832-19.466,3.656-29.196,5.497c-7.233,1.369-14.27,3.099-18.15,10.03
			c-3.912,6.986-3.889,16.422-4.309,24.173c-0.531,9.77-0.241,19.54,0.73,29.274c0.477,4.771,7.471,6.438,8.84,1.196
			c2.887-11.058,3.025-22.302,0.492-33.441c-0.928-4.075-6.145-4.025-8.227-1.075c-5.144,7.293-6.517,16.331-4.035,24.875
			C1617.517,441.409,1626.204,439.047,1624.582,433.465"/>
		<path fill="#300742" d="M1629.749,424.637c4.311,1.348,8.571-1.975,8.692-6.383c0.006-0.217,0.071-0.919-0.053-1.093
			c-0.809,0.786-1.617,1.571-2.425,2.356c0.166-0.002,0.331-0.003,0.497-0.005c0.424,0.185,0.48-0.199,0.141-0.036
			c0.142,0.037,0.284,0.074,0.426,0.111c-0.641-0.738-1.282-1.476-1.925-2.215c-0.32,0.305,0.028,2.495,0.033,2.978
			c0.005,0.441,0.013,0.883,0.015,1.323c0.004,1.5-0.342,0.106,0.676-0.883l1.986-1.157c2.38,2.723,3.469,3.194,3.267,1.414
			c-0.056-2.659-2.036-4.191-4.5-4.5c-1.885-0.235-3.617,0.301-5.299,1.106c-2.192,1.048-2.769,4.183-1.614,6.157
			c1.311,2.241,3.956,2.667,6.156,1.614c-0.596,0.285,0.444,0.084,0.757,0.123l-4.5-4.5c0.048,2.357,0.612,4.639,2.504,6.181
			c1.882,1.534,4.553,1.884,6.696,0.63c3.608-2.111,3.076-7.468,2.801-11.047c-0.342-4.416-4.239-6.58-8.367-6.273
			c-2.379,0.178-4.465,1.168-5.618,3.327c-0.586,1.095-0.729,2.345-0.688,3.57c0.028,0.883-0.241,1.282,0.647-0.203
			c0.425-0.711,1.045-1.599,2.088-1.273C1626.601,414.227,1624.23,422.912,1629.749,424.637"/>
		<rect x="1645.618" y="682.314" fill="#841784" width="274.382" height="397.686"/>
		<path fill="#893E9B" d="M1920,468.91v241.438h-344.059C1690.628,629.869,1805.314,549.39,1920,468.91"/>
		<rect x="1645.618" y="710.349" fill="#620A7F" width="274.382" height="12.443"/>
		<path fill="#715C93" d="M1720.962,514.501c-3.134-1.562-5.735-3.99-7.396-7.082c-0.804-1.499-1.344-3.11-1.662-4.78
			c-0.162-0.849-0.244-1.708-0.254-2.573c-0.007-0.845,0.26-1.859,0.002-2.667c-0.207-0.652-0.998-0.699-1.372-0.179
			c-0.532,0.738-0.477,1.971-0.487,2.846c-0.012,0.952,0.075,1.899,0.221,2.838c0.295,1.915,0.979,3.783,1.891,5.488
			c1.838,3.433,4.756,6.247,8.411,7.642C1721.2,516.372,1721.81,514.923,1720.962,514.501"/>
		<path fill="#715C93" d="M1725.664,515.815c4.148-0.663,7.428-3.062,10.061-6.252c1.363-1.652,2.533-3.439,3.59-5.299
			c0.534-0.937,1.039-1.89,1.528-2.851c0.47-0.927,1.048-1.886,1.347-2.883c0.315-1.055-1.134-1.569-1.707-0.72
			c-0.538,0.797-0.888,1.761-1.318,2.621c-0.446,0.89-0.908,1.772-1.393,2.642c-0.98,1.759-2.055,3.48-3.276,5.083
			c-2.295,3.009-5.396,5.675-9.079,6.759C1724.827,515.088,1725.082,515.91,1725.664,515.815"/>
		<path fill="#715C93" d="M1727.505,511.104c0.763-1.078,1.586-2.109,2.299-3.224c0.708-1.109,1.422-2.213,2.122-3.328
			c0.701-1.112,1.41-2.22,2.083-3.35c0.314-0.527,0.628-1.054,0.942-1.581c0.341-0.571,0.767-1.137,0.955-1.778
			c0.196-0.665-0.666-1.14-1.146-0.667c-0.474,0.467-0.771,1.115-1.111,1.684c-0.316,0.525-0.632,1.052-0.948,1.577
			c-0.677,1.127-1.319,2.275-1.969,3.418s-1.286,2.293-1.928,3.44c-0.646,1.153-1.163,2.364-1.753,3.544
			C1726.898,511.145,1727.31,511.378,1727.505,511.104"/>
		<path fill="#715C93" d="M1447.21,1077.149c-8.789-7.127-17.663-14.148-26.226-21.55c-8.463-7.315-16.701-14.897-24.67-22.75
			c-16.061-15.827-31.059-32.757-44.805-50.632c-7.7-10.014-15.08-20.272-22.162-30.731c-0.691-1.021-2.341-0.089-1.672,0.977
			c12.034,19.16,25.753,37.239,40.595,54.308c14.866,17.098,30.897,33.219,48.019,48.062c9.597,8.32,19.458,16.403,29.952,23.571
			C1446.98,1078.909,1447.917,1077.723,1447.21,1077.149"/>
		<path fill="#715C93" d="M1447.254,1075.512c-6.333,0.218-12.464-0.268-18.619-1.838c-6.156-1.569-12.075-3.936-17.866-6.523
			c-10.738-4.799-21.243-10.239-31.685-15.651c-20.086-10.41-39.86-21.746-57.45-36.068c-9.757-7.944-18.713-16.824-26.649-26.592
			c-0.882-1.087-2.822,0.387-1.957,1.511c13.955,18.135,32.131,32.553,51.383,44.709c9.843,6.216,20.023,11.882,30.357,17.234
			c10.479,5.428,21.057,10.762,31.815,15.617c6.538,2.951,13.235,5.579,20.22,7.272c6.652,1.612,13.796,2.541,20.604,1.465
			C1448.054,1076.545,1447.897,1075.49,1447.254,1075.512"/>
		<path fill="#715C93" d="M1449.25,1073.752c0.234,0,0.234-0.364,0-0.364S1449.016,1073.752,1449.25,1073.752"/>
		<path fill="#715C93" d="M1448.202,1073.144c-0.351,1.297-1.889,1.913-3.116,1.461c-1.39-0.511-2.315-1.821-3.049-3.034
			c-1.521-2.518-2.89-5.13-4.297-7.712c-2.903-5.322-5.593-10.76-8.123-16.27c-5.025-10.941-9.315-22.216-13.16-33.621
			c-3.896-11.557-7.302-23.272-10.482-35.044c-3.232-11.962-6.414-23.961-9.207-36.033c-1.677-7.244-3.148-14.552-4.05-21.937
			c-0.439-3.603-0.749-7.223-0.887-10.851c-0.141-3.711-0.006-7.423-0.137-11.133c-0.033-0.938-1.55-1.25-1.723-0.232
			c-1.138,6.707-0.538,13.805,0.197,20.531c0.733,6.714,1.92,13.368,3.344,19.968c2.794,12.95,6.225,25.79,9.668,38.581
			c6.622,24.593,14.19,49.033,25.113,72.096c3.072,6.488,6.407,12.875,10.137,19.01c1.371,2.257,2.98,5.885,5.765,6.688
			c1.884,0.543,4.371-0.129,4.871-2.23C1449.199,1072.822,1448.352,1072.586,1448.202,1073.144"/>
		<path fill="#715C93" d="M1446.274,1074.906c-3.918-23.703-7.138-47.453-8.696-71.441c-1.553-23.879-1.63-47.818-0.38-71.713
			c0.701-13.386,1.851-26.756,3.4-40.07c0.126-1.085-1.548-1.058-1.688,0c-3.177,23.888-4.736,47.955-4.782,72.054
			c-0.044,23.91,1.325,47.861,4.323,71.587c1.69,13.375,3.732,26.745,6.584,39.926
			C1445.213,1076.067,1446.407,1075.709,1446.274,1074.906"/>
		<path fill="#715C93" d="M1449.256,1053.818c-1.064-0.021-2.029-0.169-2.955-0.731c-0.962-0.584-1.354-1.363-1.95-2.26
			c-1.105-1.657-2.621-0.624-3.961,0.117c-4.28,2.371-8.504,4.853-12.638,7.471c-3.439,2.18-6.496,4.606-7.901,8.569
			c-0.739,2.082-1.116,4.268-1.932,6.325c-0.901,2.268-2.198,4.419-3.709,6.332c-0.599,0.755,0.421,1.839,1.083,1.083
			c2.876-3.28,4.419-7.002,5.56-11.164c0.605-2.209,1.357-4.25,2.944-5.947c1.396-1.494,3.095-2.646,4.805-3.744
			c3.984-2.559,8.053-4.989,12.176-7.316c0.411-0.232,0.819-0.499,1.247-0.699c0.817-0.382,0.851-0.422,1.346,0.313
			c0.461,0.685,0.964,1.283,1.646,1.762c1.25,0.875,2.884,1.264,4.372,0.859C1449.929,1054.641,1449.813,1053.829,1449.256,1053.818
			"/>
		<path fill="#715C93" d="M1396.179,1077.147c4.661,0.267,7.291-4.123,8.302-8.083c0.639-2.505,0.923-5.218,2.132-7.536
			c1.143-2.192,3.132-3.646,4.945-5.247c1.789-1.579,3.079-3.271,3.964-5.496c0.495-1.244,0.942-2.491,1.814-3.53
			c0.728-0.867,1.633-1.569,2.562-2.206c1.789-1.227,3.715-2.275,5.319-3.752c0.969-0.892,1.751-2.072,2.981-2.623
			c1.298-0.582,2.861-0.662,4.251-0.881c7.022-1.098,14.084-2.065,21.067-3.402c0.978-0.188,0.769-1.88-0.238-1.761
			c-6.165,0.729-12.301,1.768-18.437,2.704c-1.475,0.227-2.946,0.452-4.42,0.676c-1.287,0.196-2.587,0.354-3.724,1.041
			c-1.014,0.612-1.76,1.527-2.588,2.353c-0.828,0.827-1.766,1.505-2.741,2.147c-1.832,1.209-3.804,2.312-5.31,3.94
			c-1.756,1.898-2.127,4.376-3.462,6.504c-1.271,2.026-3.366,3.38-5.082,4.99c-1.729,1.622-2.923,3.514-3.617,5.784
			c-0.817,2.677-0.894,5.554-1.892,8.177c-0.946,2.487-2.899,5.299-5.828,5.253
			C1395.565,1076.189,1395.573,1077.113,1396.179,1077.147"/>
		<path fill="#715C93" d="M1451.601,1020.936c-3.596-1.569-7.338-2.781-11.051-4.036c-2.223-0.751-6.811-1.725-6.824-4.771
			c-0.004-0.757-0.786-1.112-1.416-0.812c-10.21,4.866-17.025,14.447-23.418,23.388c-1.902,2.66-3.792,5.335-5.472,8.146
			c-1.466,2.45-2.698,5.011-3.949,7.574c-1.182,2.418-2.406,4.855-4.044,7.003c-0.746,0.978-1.589,1.888-2.527,2.684
			c-0.461,0.391-1.113,0.692-1.524,1.124c-0.502,0.528-0.421,1.207-0.487,1.907c-0.699,7.343-2.763,14.429-5.664,21.188
			c-0.421,0.979,0.963,1.856,1.469,0.859c3.647-7.184,5.66-15.165,6.265-23.182c-0.162,0.283-0.324,0.567-0.487,0.852
			c6.837-4.556,8.859-13.251,12.989-19.899c2.47-3.974,5.27-7.753,8.046-11.515c2.549-3.456,5.202-6.855,8.193-9.944
			c3.389-3.498,7.165-6.441,11.561-8.561c-0.472-0.271-0.943-0.541-1.415-0.813c0.026,3.2,3.141,4.829,5.81,5.71
			c4.461,1.472,9.013,2.913,13.606,3.905C1451.719,1021.842,1452.084,1021.146,1451.601,1020.936"/>
		<path fill="#715C93" d="M1374.442,1078.273c2.27-4.907,3.395-10.418,4.09-15.753c0.726-5.565,0.798-11.191,0.243-16.775
			c-0.161,0.28-0.322,0.561-0.482,0.841c4.968-2.966,5.574-9.085,7.657-13.962c2.425-5.678,7.816-8.541,12.645-11.904
			c2.384-1.66,4.669-3.483,6.442-5.806c2.04-2.671,3.305-5.804,5.022-8.671c1.872-3.127,4.381-5.219,7.586-6.902
			c3.17-1.665,6.444-3.201,9.775-4.518c3.751-1.482,7.695-2.726,11.733-3.072c4.036-0.346,7.709,0.402,11.374,2.084
			c0.992,0.457,1.804-0.866,0.865-1.479c-5.865-3.828-13.686-2.93-20.042-0.994c-3.502,1.065-6.885,2.508-10.194,4.063
			c-3.13,1.472-6.401,2.917-9.052,5.183c-2.606,2.227-4.18,5.304-5.745,8.29c-1.568,2.989-3.282,5.688-5.871,7.897
			c-4.608,3.938-10.486,6.353-14.227,11.278c-1.985,2.615-2.925,5.763-3.945,8.838c-1,3.012-2.176,6.239-5.008,7.993
			c-0.271,0.167-0.518,0.504-0.482,0.841c0.556,5.35,0.54,10.745-0.085,16.089c-0.637,5.455-2.14,10.633-3.522,15.924
			C1373.035,1078.464,1374.113,1078.982,1374.442,1078.273"/>
		<path fill="#715C93" d="M1450.578,978.978c-3.33-0.187-6.624-0.596-9.918-1.111c-1.602-0.251-3.195-0.542-4.782-0.871
			c-1.521-0.315-3.042-0.767-4.584-0.946c-0.815-0.095-0.866,1.108-0.184,1.353c1.51,0.538,3.189,0.74,4.768,0.997
			c1.597,0.26,3.201,0.48,4.808,0.664c3.279,0.374,6.595,0.497,9.893,0.538C1450.981,979.605,1450.977,978.998,1450.578,978.978"/>
		<path fill="#715C93" d="M1430.414,975.976c-3.946,1.386-7.52,3.86-10.888,6.295c-3.469,2.507-6.809,5.196-10.082,7.953
			c-0.915,0.771-1.695,1.678-2.613,2.43c-0.838,0.687-1.693,1.35-2.521,2.049c-1.737,1.466-3.441,2.973-5.146,4.477
			c-3.35,2.956-6.663,5.954-9.939,8.992c-6.605,6.128-13.027,12.465-19.306,18.928c-3.041,3.13-6.307,6.206-9.002,9.645
			c-1.226,1.564-2.184,3.279-2.644,5.225c-0.452,1.916-0.494,3.9-0.57,5.857c-0.394,10.085-2.733,20.028-6.911,29.218
			c-0.467,1.028,1.058,1.927,1.525,0.892c3.501-7.743,5.773-15.969,6.686-24.42c0.235-2.184,0.352-4.37,0.434-6.563
			c0.08-2.15,0.183-4.379,1.063-6.378c0.841-1.908,2.256-3.486,3.66-4.997c1.483-1.598,2.988-3.178,4.496-4.753
			c6.129-6.4,12.437-12.609,18.86-18.71c6.426-6.103,13.17-11.836,19.68-17.84c1.83-1.688,3.906-3.166,5.818-4.784
			c1.866-1.58,3.718-3.178,5.594-4.746c3.785-3.163,7.749-5.763,12.09-8.091C1431.063,976.458,1430.814,975.836,1430.414,975.976"/>
		<path fill="#715C93" d="M1447.902,960.335c-1.975-0.219-3.944-0.482-5.924-0.651c-1.721-0.146-3.721-0.63-5.43-0.265
			c-1.399,0.299-2.177,1.351-3.015,2.412c-0.832,1.054-1.793,1.967-2.928,2.687c-4.399,2.792-10.049,2.838-15.058,3.458
			c-2.597,0.321-5.207,0.713-7.693,1.555c-1.1,0.371-2.173,0.83-3.2,1.368c-0.522,0.275-1.188,0.553-1.525,1.057
			c-0.484,0.725-0.663,1.848-0.924,2.673c-2.144,6.775-6.456,12.218-12.048,16.518c-6.516,5.011-13.92,9.011-21.462,12.235
			c-1.616,0.691-0.223,3.056,1.384,2.366c7.98-3.426,15.783-7.722,22.584-13.154c6.137-4.903,11.674-12.027,12.645-20.048
			c-0.193,0.337-0.385,0.673-0.579,1.01c8.968-6.148,22.972-0.98,30.227-10.31c0.675-0.868,1.235-1.832,2.414-2.008
			c1.003-0.149,2.118,0.014,3.128,0.048c2.469,0.083,4.935,0.092,7.404,0.115C1448.604,961.407,1448.567,960.409,1447.902,960.335"
			/>
		<path fill="#715C93" d="M1346.624,1033.627c2.801-1.687,5.135-4.632,7.096-7.196c2.079-2.719,3.903-5.626,5.438-8.686
			c1.518-3.024,2.762-6.188,3.69-9.442c0.479-1.677,0.876-3.376,1.188-5.091c0.285-1.573,0.714-3.333,0.402-4.921
			c-0.191-0.977-1.439-0.728-1.741,0c-0.595,1.438-0.603,3.191-0.898,4.72c-0.306,1.579-0.685,3.145-1.134,4.69
			c-0.926,3.189-2.145,6.296-3.641,9.262c-1.45,2.874-3.155,5.619-5.092,8.191c-1.963,2.605-4.418,4.823-6.347,7.434
			C1345.118,1033.219,1346.011,1033.997,1346.624,1033.627"/>
		<path fill="#715C93" d="M1343.509,1031.909c-2.159,3.963-3.845,8.186-5.907,12.206c-2.068,4.032-4.271,7.994-6.645,11.854
			c-4.788,7.785-10.305,14.935-16.144,21.948c-1.101,1.322,0.723,3.226,1.92,1.92c6.22-6.791,11.649-14.47,16.466-22.304
			c2.411-3.922,4.671-7.941,6.723-12.062c2.047-4.11,4.195-8.352,5.438-12.783
			C1345.666,1031.598,1344.065,1030.889,1343.509,1031.909"/>
		<path fill="#715C93" d="M1285.918,1081.104c2.964-0.255,5.141-2.132,7.273-4.049c2.049-1.839,3.966-3.831,5.771-5.907
			c3.686-4.238,6.865-8.89,9.493-13.854c5.241-9.903,8.302-20.908,8.849-32.104c0.153-3.145,0.105-6.301-0.16-9.438
			c-0.252-2.972-0.772-6.132-3.147-8.188c-1.285-1.112-3.164,0.727-1.883,1.883c1.923,1.735,2.184,4.455,2.37,6.894
			c0.203,2.616,0.256,5.244,0.168,7.866c-0.174,5.129-0.905,10.223-2.15,15.2c-2.525,10.101-7.094,19.599-13.378,27.898
			c-1.762,2.326-3.678,4.539-5.714,6.628c-2.199,2.256-4.589,4.913-7.659,5.934
			C1285.114,1080.079,1285.173,1081.169,1285.918,1081.104"/>
		<path fill="#715C93" d="M1331.213,1025.492c1.716-0.883,2.956-2.853,4.132-4.33c1.179-1.481,2.329-2.985,3.424-4.529
			c2.329-3.281,4.488-6.684,6.47-10.186c1.957-3.462,3.809-7.023,5.327-10.702c1.505-3.644,2.44-7.543,1.486-11.453
			c-0.389-1.591-2.842-0.917-2.455,0.677c0.917,3.779-0.372,7.591-1.901,11.031c-1.541,3.472-3.301,6.853-5.192,10.144
			c-1.856,3.229-3.866,6.371-6.019,9.411c-1.077,1.519-2.169,3.026-3.302,4.503c-1.086,1.415-2.562,2.823-3.134,4.539
			C1329.816,1025.292,1330.636,1025.789,1331.213,1025.492"/>
		<path fill="#715C93" d="M1339.496,972.072c4.461,1.754,9.242,0.396,13.437-1.48c4.262-1.908,8.347-4.385,12.242-6.945
			c7.798-5.126,15.02-11.144,21.45-17.905c3.51-3.689,7.555-7.817,6.792-13.356c-0.171-1.243-1.959-0.808-2.054,0.278
			c-0.208,2.379-0.711,4.472-2.09,6.464c-1.238,1.789-2.814,3.379-4.306,4.957c-2.9,3.071-5.963,5.988-9.17,8.739
			c-6.496,5.571-13.612,10.458-21.134,14.54c-4.529,2.459-9.584,4.646-14.833,3.494
			C1339.024,970.682,1338.752,971.78,1339.496,972.072"/>
		<path fill="#715C93" d="M1397.248,950.06c7.238,1.788,15.068,0.222,21.696-2.963c3.364-1.617,6.491-3.745,9.238-6.273
			c1.332-1.227,2.562-2.556,3.682-3.979c1.105-1.405,2.544-3.052,2.981-4.818c0.263-1.06-1.04-1.845-1.834-1.068
			c-1.258,1.229-2.068,2.987-3.187,4.356c-1.067,1.308-2.229,2.54-3.47,3.684c-2.543,2.344-5.44,4.281-8.549,5.796
			c-6.367,3.103-13.311,3.967-20.318,3.493C1396.468,948.218,1396.27,949.817,1397.248,950.06"/>
		<path fill="#715C93" d="M1434.333,929.657c2.056,2.128,5.68,2.914,8.535,2.915c2.938,0.001,6.299-0.801,8.515-2.845
			c0.694-0.641-0.187-1.595-0.952-1.234c-1.212,0.57-2.356,1.156-3.665,1.497c-1.283,0.333-2.57,0.517-3.897,0.496
			c-1.276-0.021-2.539-0.204-3.763-0.566c-1.318-0.39-2.471-1.078-3.718-1.629C1434.525,927.91,1433.601,928.899,1434.333,929.657"
			/>
		<path fill="#715C93" d="M1577.639,710.337c-6.489,19.089-16.369,36.829-28.029,53.224c-11.801,16.594-25.404,31.834-39.596,46.404
			c-6.999,7.187-16.391,16.254-27.376,14.416c-1.874-0.313-2.68,2.555-0.791,2.87c10.144,1.697,18.992-4.419,26.052-11.016
			c7.581-7.083,14.594-14.909,21.465-22.673c13.838-15.637,26.65-32.333,36.862-50.587c5.687-10.169,10.532-20.813,14.283-31.848
			C1581.127,709.311,1578.253,708.53,1577.639,710.337"/>
		<path fill="#715C93" d="M1596.772,711.638c1.557,16.375,0.278,32.946-3.66,48.912c-3.94,15.969-10.475,31.267-19.346,45.12
			c-4.998,7.804-10.736,15.104-17.142,21.802c-1.324,1.384,0.777,3.492,2.104,2.104c11.588-12.115,21.043-26.217,27.958-41.484
			c6.896-15.224,11.309-31.508,12.979-48.14c0.946-9.41,0.978-18.899,0.082-28.314
			C1599.569,709.747,1596.591,709.729,1596.772,711.638"/>
		<path fill="#715C93" d="M1628.678,712.588c2.521,29.872-0.068,60.108-7.666,89.109c-2.163,8.254-4.731,16.396-7.682,24.402
			c-0.663,1.802,2.213,2.577,2.871,0.792c10.449-28.364,16-58.513,16.377-88.738c0.108-8.531-0.206-17.064-0.924-25.565
			C1631.494,710.691,1628.517,710.676,1628.678,712.588"/>
		<path fill="#715C93" d="M1651.088,707.723c-0.214,16.034,0.643,32.077,2.58,47.995c1.924,15.815,4.872,31.501,8.868,46.925
			c2.277,8.794,4.896,17.496,7.836,26.091c0.616,1.802,3.493,1.028,2.871-0.791c-5.139-15.023-9.282-30.381-12.382-45.953
			c-3.104-15.597-5.159-31.396-6.146-47.269c-0.56-8.987-0.772-17.994-0.651-26.998
			C1654.09,705.807,1651.113,705.806,1651.088,707.723"/>
		<path fill="#715C93" d="M1572.302,730.262c9.009-1.966,18.668,1.395,24.647,8.371c0.454,0.529,1.235,0.503,1.804,0.232
			c5.314-2.521,11.071-4.199,16.924-4.838c4.621-0.504,11.636-0.47,13.071,5.181c0.234,0.922,1.375,1.381,2.187,0.889
			c5.755-3.492,14.579-8.483,20.626-2.696c1.384,1.325,3.491-0.777,2.104-2.104c-3.026-2.897-7.286-3.828-11.361-3.292
			c-4.711,0.621-8.88,3.101-12.872,5.522c0.729,0.297,1.458,0.594,2.186,0.89c-1.642-6.467-8.851-7.959-14.604-7.493
			c-6.868,0.556-13.544,2.423-19.763,5.373c0.602,0.077,1.202,0.155,1.804,0.232c-6.68-7.793-17.548-11.318-27.544-9.137
			C1569.64,727.8,1570.432,730.67,1572.302,730.262"/>
		<path fill="#715C93" d="M1596.173,759.148c5.938-1.28,12.031-1.669,18.086-1.153c2.774,0.237,5.582,0.623,8.277,1.34
			c2.224,0.592,4.476,1.522,5.663,3.609c0.947,1.665,3.521,0.167,2.57-1.502c-2.871-5.048-9.92-5.723-15.088-6.285
			c-6.777-0.737-13.642-0.314-20.3,1.121C1593.51,756.682,1594.302,759.552,1596.173,759.148"/>
		<path fill="#715C93" d="M1628.876,782.781c5.631-1.289,11.641-1.318,17.395-1.138c4.771,0.15,9.887,0.871,13.503,4.271
			c1.396,1.312,3.505-0.789,2.105-2.104c-4.024-3.782-9.48-4.871-14.831-5.114c-6.258-0.283-12.839-0.188-18.963,1.215
			C1626.218,780.339,1627.008,783.209,1628.876,782.781"/>
		<path fill="#715C93" d="M1539.666,780.501c7.186-3.456,15.487-4.646,23.352-3.279c1.936,0.337,3.868,0.8,5.722,1.453
			c1.942,0.685,3.429,1.846,4.82,3.336c2.983,3.195,5.747,6.623,8.603,9.934c1.253,1.452,3.351-0.66,2.104-2.104
			c-3.025-3.509-5.909-7.265-9.186-10.541c-3.147-3.146-7.411-4.322-11.7-5.019c-8.584-1.395-17.382-0.117-25.218,3.651
			C1536.438,778.762,1537.945,781.329,1539.666,780.501"/>
		<path fill="#715C93" d="M1514.838,809.438c7.042-2.739,14.433-4.608,21.949-5.422c6.584-0.712,13.725-1.076,20.203,0.587
			c2.678,0.687,5.346,1.777,7.416,3.658c2.167,1.968,2.983,5.219,6.32,5.418c1.548,0.093,3.141-0.109,4.689-0.161
			c1.932-0.065,3.865-0.102,5.798-0.102c3.565,0,7.136,0.125,10.688,0.438c7.936,0.7,15.848,2.421,23.092,5.802
			c1.726,0.806,3.238-1.76,1.503-2.57c-13.37-6.24-28.329-7.085-42.859-6.478c-0.838,0.035-1.692,0.13-2.532,0.105
			c-0.871-0.026-1.25-0.272-1.735-0.984c-0.872-1.282-1.7-2.52-2.859-3.573c-2.094-1.901-4.658-3.184-7.343-4.029
			c-6.301-1.984-13.316-1.835-19.828-1.325c-8.664,0.68-17.194,2.615-25.294,5.767
			C1512.279,807.254,1513.048,810.133,1514.838,809.438"/>
		<path fill="#715C93" d="M1622.638,804.546c13.239-2.959,28.068-3.79,40.188,3.319c1.655,0.971,3.155-1.601,1.502-2.57
			c-12.828-7.524-28.454-6.755-42.481-3.619C1619.978,802.093,1620.769,804.964,1622.638,804.546"/>
		<path fill="#715C93" d="M1725.719,499.285c-4.547,3.443-5.886,10.347-3.983,15.547c0.282,0.771,1.265,1.157,1.897,0.501
			c3.775-3.914,5.294-9.653,3.958-14.924c-0.196-0.772-1.366-1.189-1.915-0.505c-2.253,2.807-3.038,6.591-1.876,10.032
			c0.325,0.964,1.545,1.114,2.105,0.276c1.648-2.454,1.325-5.766-0.576-7.972c-0.602-0.697-1.692-0.261-1.941,0.513
			c-1.165,3.612-1.389,7.42-0.743,11.154c0.16,0.926,1.369,1.059,1.964,0.519c3.399-3.085,3.625-8.595,0.748-12.081
			c-0.632-0.765-1.692-0.215-1.987,0.524c-1.219,3.048-1.871,6.284-1.975,9.563c-0.023,0.753,0.79,1.399,1.521,1.159
			c2.796-0.921,4.479-3.92,3.751-6.788c-0.378-1.484-2.661-0.856-2.294,0.632c0.386,1.561-0.558,3.329-2.096,3.839
			c0.507,0.386,1.014,0.773,1.521,1.158c0.089-3.075,0.73-6.073,1.865-8.93c-0.663,0.175-1.325,0.349-1.987,0.524
			c2.095,2.527,1.646,6.572-0.728,8.738c0.654,0.172,1.309,0.345,1.963,0.518c-0.581-3.316-0.307-6.71,0.718-9.912
			c-0.647,0.171-1.295,0.342-1.941,0.513c1.253,1.447,1.269,3.607,0.229,5.165l2.106,0.275c-0.89-2.615-0.477-5.619,1.273-7.799
			c-0.638-0.169-1.276-0.338-1.914-0.506c1.134,4.471-0.163,9.378-3.354,12.708l1.898,0.501c-0.842-2.277-1.004-4.736-0.453-7.104
			c0.561-2.417,1.827-4.447,3.413-6.325C1727.533,500.03,1726.653,498.577,1725.719,499.285"/>
		<path fill="#715C93" d="M1724.825,511.864c-3.51,1.675-5.414,5.148-6.213,8.826c-0.429,1.976-0.605,4.01-0.646,6.028
			c-0.039,1.931-0.071,3.942,0.428,5.823c0.444,1.674,1.298,3.522,2.856,4.428c1.849,1.077,3.824,0.131,5.102-1.35
			c2.796-3.243,4.296-7.45,4.504-11.703c0.239-4.908-1.31-9.742-4.423-13.541c-0.537-0.657-1.767-0.456-2.133,0.274
			c-2.961,5.902-3.869,12.529-2.66,19.016c0.179,0.952,1.654,1.379,2.276,0.6c4.037-5.05,5.479-11.75,3.698-17.995
			c-0.384-1.344-2.187-1.23-2.618,0c-2.037,5.805-2.915,11.964-2.585,18.107c0.061,1.123,1.464,1.847,2.311,0.957
			c3.492-3.668,4.241-9.268,1.859-13.732c-0.496-0.928-1.813-0.822-2.333,0c-3.461,5.47-4.438,12.24-2.698,18.47
			c0.282,1.01,1.511,1.27,2.251,0.595c4.584-4.179,5.544-11.521,2.197-16.74c-0.44-0.686-1.512-0.949-2.11-0.273
			c-2.918,3.309-4.115,7.616-3.378,11.957c0.168,0.992,1.61,1.3,2.249,0.594c2.949-3.26,4.521-7.521,4.285-11.923
			c-0.092-1.725-2.686-1.751-2.7,0c-0.028,3.425-0.057,6.851-0.085,10.275c-0.012,1.404,1.804,1.763,2.523,0.684
			c1.912-2.866,1.34-6.999-1.339-9.191c-0.525-0.43-1.035-0.473-1.645-0.212c-2.962,1.267-3.555,5.512-1.32,7.703
			c0.613,0.6,1.697,0.495,2.129-0.275c2.083-3.716,2.506-8.156,1.056-12.175c-0.262-0.727-1.235-1.379-1.986-0.809
			c-4.153,3.156-5.496,9.061-2.847,13.63c0.481,0.829,1.875,0.926,2.33,0c2.709-5.519,3.578-11.627,2.546-17.685
			c-0.244-1.432-2.185-1.111-2.594,0c-1.738,4.731-1.301,9.992,1.074,14.42c0.401,0.748,1.529,0.887,2.106,0.272
			c2.737-2.912,3.717-7.144,2.396-10.939c-0.292-0.84-1.567-1.452-2.237-0.591c-3.659,4.711-5.076,10.691-3.815,16.537
			c0.209,0.969,1.57,1.306,2.23,0.589c2.689-2.922,3.654-7.102,2.369-10.885c-0.368-1.083-1.811-1.323-2.435-0.319
			c-2.526,4.062-3.395,8.817-2.612,13.519c0.186,1.119,1.938,1.295,2.429,0.317c1.613-3.214,2.011-6.794,0.743-10.192
			c-0.318-0.852-1.187-1.033-1.88-0.496c-2.909,2.254-5.569,4.741-7.458,7.94c-1.879,3.181-2.86,6.746-2.969,10.434
			c-0.044,1.53,2.341,1.531,2.379,0c0.158-6.364,3.494-13.665,9.41-16.608c-0.55-0.223-1.101-0.447-1.651-0.672
			c0.63,2.752,0.405,5.718-0.869,8.254c0.81,0.106,1.619,0.212,2.429,0.318c-0.662-3.991,0.219-8.047,2.35-11.468
			c-0.812-0.106-1.623-0.212-2.435-0.318c0.977,2.878,0.387,6.039-1.688,8.291c0.743,0.196,1.487,0.392,2.23,0.589
			c-1.036-4.821,0.099-10.031,3.136-13.935c-0.746-0.197-1.491-0.395-2.237-0.591c1.006,2.897,0.405,6.08-1.711,8.33
			c0.702,0.091,1.404,0.181,2.106,0.272c-2.055-3.835-2.295-8.284-0.797-12.351h-2.594c0.9,5.294,0.086,10.79-2.282,15.607h2.33
			c-1.844-3.184-1.1-7.669,1.882-9.932l-1.986-0.809c1.209,3.358,0.963,6.968-0.789,10.089c0.71-0.091,1.419-0.182,2.129-0.274
			c-1.101-1.078-0.562-2.873,0.773-3.444c-0.548-0.07-1.097-0.141-1.645-0.212c1.794,1.469,2.213,3.963,0.919,5.906
			c0.842,0.227,1.683,0.456,2.523,0.683c0.026-3.424,0.052-6.85,0.077-10.275h-2.7c0.201,3.69-1.002,7.268-3.487,10.02
			c0.749,0.198,1.499,0.396,2.249,0.594c-0.57-3.338,0.446-6.81,2.683-9.342l-2.11-0.272c2.727,4.255,1.953,10.079-1.781,13.479
			c0.75,0.199,1.501,0.397,2.251,0.595c-1.553-5.569-0.659-11.51,2.434-16.39h-2.333c1.801,3.378,1.198,7.686-1.44,10.454
			c0.771,0.319,1.541,0.638,2.311,0.957c-0.315-5.928,0.527-11.784,2.496-17.385h-2.618c1.494,5.243,0.418,11.07-3.005,15.349
			c0.758,0.2,1.517,0.4,2.273,0.6c-1.066-5.731-0.211-11.702,2.381-16.921c-0.713,0.092-1.424,0.184-2.133,0.276
			c4.332,5.242,4.884,13.198,1.604,19.108c-0.55,0.991-1.924,3.686-3.306,3.423c-1.216-0.231-1.781-2.296-2.016-3.282
			c-0.345-1.452-0.297-3.006-0.284-4.49c0.013-1.629,0.099-3.272,0.379-4.88c0.587-3.374,1.937-6.632,5.157-8.22
			C1727.451,513.263,1726.223,511.197,1724.825,511.864"/>
		<path fill="#715C93" d="M1726.6,528.885c0.319,0.466,0.67,1.055,1.125,1.386c0.504,0.367,1.072,0.636,1.655,0.851
			c1.171,0.433,2.425,0.483,3.646,0.272c-0.474-0.361-0.946-0.721-1.42-1.081c0.144,1.64,0.292,3.275,0.486,4.915
			c0.095,0.801,0.189,1.601,0.284,2.403c0.048,0.4,0.094,0.801,0.143,1.201c0.063,0.519,0.227,0.919,0.441,1.393
			c0.36,0.791,1.719,0.593,1.88-0.245c0.091-0.468,0.159-0.891,0.104-1.366c-0.044-0.365-0.088-0.728-0.132-1.092
			c-0.101-0.838-0.201-1.675-0.303-2.513c-0.201-1.674-0.449-3.331-0.7-4.995c-0.093-0.613-0.848-0.909-1.38-0.783
			c-0.809,0.192-1.624,0.155-2.419-0.08c-0.41-0.122-0.767-0.303-1.14-0.509c-0.404-0.223-0.786-0.325-1.148-0.624
			C1727.145,527.542,1726.105,528.162,1726.6,528.885"/>
		<path fill="#715C93" d="M1722.629,518.635c-3.556,1.039-6.53,3.552-8.671,6.521c-1.056,1.464-1.885,3.083-2.5,4.777
			c-0.316,0.871-0.564,1.767-0.74,2.678c-0.173,0.9-0.387,1.922-0.279,2.841c0.134,1.133,1.901,1.631,2.179,0.294
			c0.172-0.829,0.179-1.684,0.338-2.519c0.152-0.796,0.363-1.581,0.625-2.349c0.529-1.554,1.306-3.017,2.247-4.361
			c1.912-2.729,4.563-4.71,7.505-6.215C1724.256,519.829,1723.614,518.347,1722.629,518.635"/>
		<path fill="#715C93" d="M1729.753,522.889c0.341-0.035,0.468,0.054,0.796,0.117c0.292,0.057,0.597,0.007,0.893,0.006
			c0.519-0.001,1.051,0.032,1.564,0.104c1.043,0.143,2.072,0.481,3.002,0.972c0.936,0.493,1.776,1.124,2.5,1.896
			c0.768,0.817,1.201,1.814,1.857,2.705c0.249,0.339,0.624,0.547,1.055,0.429c0.364-0.1,0.729-0.5,0.686-0.901
			c-0.152-1.372-0.959-2.516-1.864-3.528c-0.868-0.972-1.942-1.788-3.099-2.387c-1.164-0.603-2.411-1.01-3.709-1.186
			c-0.643-0.087-1.269-0.119-1.915-0.055c-0.334,0.033-0.696,0.057-1.018,0.155c-0.346,0.106-0.571,0.379-0.905,0.513
			C1729.037,521.952,1729.029,522.964,1729.753,522.889"/>
		<path fill="#715C93" d="M1722.104,508.997c-0.106-0.581-0.094-1.136-0.234-1.715c-0.134-0.556-0.265-1.114-0.42-1.664
			c-0.289-1.021-0.617-2.034-0.925-3.05c-0.309-1.017-0.616-2.034-0.925-3.05c-0.313-1.032-0.528-2.27-1.093-3.193
			c-0.354-0.578-1.347-0.366-1.319,0.358c0.042,1.087,0.535,2.227,0.848,3.266c0.318,1.057,0.636,2.112,0.954,3.169
			c0.318,1.056,0.613,2.121,0.963,3.167c0.181,0.544,0.377,1.084,0.577,1.62c0.192,0.515,0.505,0.947,0.722,1.452
			C1721.474,509.874,1722.193,509.479,1722.104,508.997"/>
		<rect x="1770.048" y="754.04" fill="#620A7F" width="81.075" height="124.688"/>
		<rect x="1770.048" y="881.882" width="87.278" height="7.649"/>
		<rect x="1808.17" y="759.568" fill="#A55BB2" width="4.83" height="113.632"/>
		<rect x="1774.878" y="813.969" fill="#A55BB2" width="71.415" height="4.831"/>
		<rect x="1770.048" y="759.568" fill="#A55BB2" width="4.83" height="113.632"/>
		<rect x="1846.293" y="759.568" fill="#A55BB2" width="4.83" height="113.632"/>
		<rect x="1763.845" y="873.2" fill="#A55BB2" width="93.481" height="11.058"/>
		<rect x="1763.845" y="748.511" fill="#A55BB2" width="93.481" height="11.059"/>
		<path fill="#893E9B" d="M1920,901.86V854.72h-468.07V1080H1920V934.15c-8.46-0.521-15.16-7.551-15.16-16.15
			c0-4.46,1.811-8.51,4.74-11.43C1912.28,903.86,1915.93,902.11,1920,901.86 M1561.311,929.44c-2.931,2.93-6.971,4.739-11.44,4.739
			h-24.54c-8.94,0-16.18-7.239-16.18-16.18c0-4.46,1.81-8.51,4.739-11.43c2.931-2.931,6.971-4.74,11.44-4.74h24.54
			c8.94,0,16.179,7.24,16.179,16.17C1566.049,922.47,1564.24,926.52,1561.311,929.44 M1660.23,929.44
			c-2.932,2.93-6.971,4.739-11.44,4.739h-24.54c-8.939,0-16.18-7.239-16.18-16.18c0-4.46,1.81-8.51,4.74-11.43
			c2.93-2.931,6.97-4.74,11.439-4.74h24.54c8.94,0,16.179,7.24,16.179,16.17C1664.969,922.47,1663.16,926.52,1660.23,929.44
			 M1759.15,929.44c-2.932,2.93-6.971,4.739-11.44,4.739h-24.54c-8.93,0-16.18-7.239-16.18-16.18c0-4.46,1.809-8.51,4.74-11.43
			c2.93-2.931,6.97-4.74,11.439-4.74h24.54c8.94,0,16.18,7.24,16.18,16.17C1763.89,922.47,1762.08,926.52,1759.15,929.44
			 M1858.07,929.44c-2.92,2.93-6.971,4.739-11.431,4.739h-24.55c-8.93,0-16.17-7.239-16.17-16.18c0-4.46,1.811-8.51,4.74-11.43
			c2.92-2.931,6.96-4.74,11.43-4.74h24.55c8.931,0,16.171,7.24,16.171,16.17C1862.811,922.47,1861,926.52,1858.07,929.44"/>
		<rect x="1439.701" y="828.344" fill="#893E9B" width="480.299" height="26.376"/>
		<rect x="1451.926" y="854.72" fill="#620A7F" width="468.074" height="18.837"/>
		<path fill="#300742" d="M1634.006,445.975c1.364-0.291,2.729-0.582,4.092-0.873c2.418-0.516,3.706-3.286,3.144-5.535
			c-0.224-0.893-0.212-1.785-0.081-2.827c-1.102,1.446-2.203,2.892-3.304,4.339c0.522-0.097,0.543-0.11,0.061-0.039
			c0.283-0.024,0.565-0.028,0.85-0.01c-1.03,0.037-1.767-0.578-2.212-1.846c-0.051-0.468-0.066-0.426-0.043,0.127
			c-0.142,1.713-0.027,3.488-0.039,5.208l4.5-4.5c-0.422,0.026-1.467,0.032-1.591,0.011c1.048,1.048,2.096,2.095,3.144,3.142
			c0.073,0.436,0.449-0.864,0.282-0.43c0.872-2.27-0.963-4.937-3.143-5.536c-2.538-0.697-4.66,0.866-5.535,3.143
			c-0.672,1.748-0.589,3.407-0.283,5.216c0.235,1.392,1.755,2.904,3.142,3.143c1.332,0.23,2.635,0.397,3.984,0.311
			c2.442-0.155,4.48-1.937,4.5-4.5c0.023-3.046,0.659-6.835-1.081-9.53c-1.989-3.079-5.688-3.248-8.928-2.589
			c-2.109,0.429-3.066,2.445-3.304,4.34c-0.221,1.754-0.026,3.506,0.402,5.219c1.047-1.845,2.096-3.69,3.143-5.536
			c-1.363,0.291-2.728,0.582-4.092,0.873c-2.379,0.508-3.76,3.291-3.143,5.536C1629.146,445.292,1631.621,446.483,1634.006,445.975"
			/>
		<path fill="#300742" d="M1631.751,484.624c1.37,0.049,2.726,0.021,4.093-0.085c3.438-0.265,5.557-3.607,3.886-6.77
			c-0.054-0.103-0.107-0.205-0.163-0.306l0.616,2.27c-1.352,0.898-2.703,1.794-4.054,2.692l-1.614-1.614
			c0.057,0.097,0.112,0.195,0.169,0.293c-0.205-0.757-0.41-1.514-0.614-2.271c0.014,0.199-0.048,0.493,0.046,0.17
			c-0.191,0.664-0.206,1.476-0.22,2.164c-0.009,0.408,0.018,0.811,0.038,1.218c0.054,1.115-0.318,0.464,0.22-0.269l1.614-1.614
			c0.404-0.096,0.808-0.191,1.212-0.288l2.271,0.615l-0.311-0.193l1.614,1.614c0.452,0.768,0.347,1.832,0.337,0.252
			c-0.003-0.542-0.007-1.084-0.011-1.626l-0.009-1.301c-0.002-0.325-0.005-0.65-0.007-0.975c0.03-0.587-0.054-0.442-0.253,0.435
			c-0.538,0.539-1.076,1.077-1.614,1.615c-0.619,0.247-1.218,0.203-1.795-0.13c-0.538-0.538-1.076-1.076-1.614-1.615
			c0.052,0.115,0.104,0.23,0.156,0.344l-0.615-2.271c0.263,2.566,0.063,5.236-0.176,7.796l4.5-4.5
			c0.585,0.204,1.169,0.41,1.754,0.615c-0.155-0.164-0.309-0.328-0.462-0.494c-0.238-0.325-0.617-0.58-0.923-0.823
			c-0.947-0.755-1.999-1.315-3.19-1.588c-2.32-0.531-4.611-0.08-6.829,0.66c-2.305,0.769-3.812,3.102-3.143,5.536
			c0.619,2.252,3.22,3.915,5.535,3.142c0.624-0.208,1.268-0.449,1.906-0.594c0.107-0.024,0.737,0.1,0.399-0.011
			c-0.156-0.052-0.438-0.302-0.119,0.042c1.421,1.53,2.973,2.375,5.071,2.515c2.586,0.173,4.287-2.212,4.5-4.5
			c0.238-2.569,0.418-5.221,0.176-7.796c-0.37-3.944-4.072-5.856-7.748-4.977c-3.71,0.887-4.532,4.254-4.51,7.574
			c0.021,2.95-0.496,6.4,2.07,8.481c2.862,2.32,6.977,0.935,8.444-2.253c0.602-1.308,0.563-2.601,0.515-3.99
			c-0.041-1.208,0.291-2.379,0.088-3.579c-0.641-3.78-4.762-5.246-8.104-4.031c-3.371,1.226-4.548,5.038-2.927,8.108
			c1.295-2.257,2.591-4.514,3.886-6.772c-1.366,0.106-2.723,0.134-4.093,0.085c-2.431-0.086-4.5,2.13-4.5,4.5
			C1627.251,482.634,1629.313,484.538,1631.751,484.624"/>
		<path fill="#300742" d="M1740.443,372.357c4.187,10.148,15.99,12.443,25.929,10.67c8.589-1.533,20.155-10.029,17.57-19.848
			c-1.474-5.595-10.157-3.222-8.679,2.393c1.165,4.424-8.621,8.434-11.696,8.828c-4.315,0.552-12.442,0.421-14.446-4.436
			C1746.942,364.686,1738.231,367,1740.443,372.357"/>
		<path fill="#300742" d="M1746.5,374.808c3.33,2.009,6.777,3.569,10.451,4.834c3.065,1.055,6.76-2.382,5.536-5.535
			c-0.755-1.945-1.521-3.883-2.301-5.817c-2.508,1.459-5.015,2.919-7.521,4.378c2.475,2.134,4.949,4.268,7.423,6.401
			c3.412,2.942,8.506,0.139,7.521-4.378c-0.537-2.467-1.074-4.934-1.612-7.401c-2.507,1.459-5.015,2.919-7.521,4.378
			c1.877,2.163,4.045,4.286,6.805,5.215c1.505,0.507,3.283-0.076,4.378-1.157c2.391-2.36,1.817-5.681,1.813-8.777
			c-2.796,0.756-5.591,1.514-8.386,2.271c1.725,3.685,3.71,8.499,8.371,8.598c1.442,0.03,3.268-0.85,3.886-2.229
			c1.022-2.284,1.026-4.706,1.803-7.06l-2.067,2.689c0.235-0.159,0.47-0.319,0.705-0.479h-4.543c0.989,0.468,1.915,0.876,2.97,1.174
			c2.53,0.711,4.639-0.892,5.535-3.144c0.374-0.783,0.638-1.603,0.793-2.457c-2.946-0.399-5.893-0.797-8.839-1.196
			c-0.019,0.494-0.036,0.988-0.054,1.482c-1.154,5.654,7.52,8.072,8.678,2.393c0.283-1.392,0.434-2.455,0.376-3.875
			c-0.2-4.926-7.562-6.288-8.839-1.197c-0.155,0.855-0.42,1.674-0.795,2.457c1.847-1.047,3.691-2.094,5.537-3.142
			c-2.498-0.704-4.277-1.442-6.522,0.565c-2.433,2.175-1.322,4.6-2.509,7.248c1.295-0.743,2.591-1.486,3.886-2.229
			c-0.22-0.005-0.439-0.01-0.658-0.015l3.181,1.318c-1.443-1.397-2.289-3.662-3.123-5.444c-1.957-4.179-8.391-1.947-8.385,2.272
			c0.001,0.917-0.671,3.887,0.822,2.413c1.46-0.386,2.919-0.772,4.379-1.158c-0.846-0.284-2.289-2.273-2.834-2.9
			c-3.139-3.613-8.408,0.306-7.521,4.379l1.611,7.4c2.507-1.46,5.015-2.919,7.521-4.378c-2.475-2.133-4.949-4.267-7.423-6.401
			c-3.023-2.606-9.36-0.184-7.521,4.379c0.779,1.934,1.546,3.872,2.301,5.816c1.845-1.845,3.69-3.69,5.535-5.536
			c-2.952-1.015-5.636-2.318-8.302-3.926C1746.069,364.039,1741.54,371.819,1746.5,374.808"/>
	</g>
</g>
<g id="_x3C_Group_txt_x3E__1_" display="none">
	<defs>
		<rect id="SVGID_1_" width="1920" height="1080"/>
	</defs>
	<clipPath id="SVGID_6_" display="inline">
		<use xlink:href="#SVGID_1_"  display="none" overflow="visible"/>
	</clipPath>
	<path clip-path="url(#SVGID_6_)" fill="#FFFFFF" d="M612.896,442.602c-4.021,0-7.771-0.376-11.25-1.125
		c-3.48-0.75-6.422-1.634-8.82-2.655v-25.56h20.609l0.541,8.91h-9.631v9.81c1.14,0.36,2.505,0.645,4.096,0.854
		c1.589,0.211,3.104,0.316,4.545,0.316c4.919,0,8.369-1.17,10.349-3.51c1.981-2.34,2.971-6.359,2.971-12.061
		c0-4.079-0.526-7.274-1.576-9.584c-1.05-2.309-2.76-3.945-5.129-4.905c-2.371-0.959-5.596-1.44-9.676-1.44
		c-2.64,0-5.385,0.195-8.234,0.585c-2.851,0.39-5.596,1.006-8.235,1.844v-9.089c2.7-0.9,5.79-1.589,9.27-2.07
		c3.479-0.48,6.869-0.72,10.17-0.72c8.76,0,15.104,2.175,19.035,6.525c3.929,4.351,5.895,10.636,5.895,18.854
		c0,8.042-1.966,14.221-5.895,18.541C628,440.441,621.656,442.602,612.896,442.602"/>
	<path clip-path="url(#SVGID_6_)" fill="#FFFFFF" d="M667.165,442.602c-4.261,0-8.16-0.481-11.7-1.44
		c-3.541-0.959-6.36-2.595-8.459-4.905c-2.102-2.309-3.151-5.414-3.151-9.315c0-2.1,0.495-4.095,1.485-5.986
		c0.99-1.889,2.535-3.404,4.635-4.544c-1.741-0.779-3.165-2.009-4.275-3.69c-1.11-1.68-1.665-3.72-1.665-6.12
		c0-4.739,1.499-8.325,4.5-10.755c3-2.431,6.869-3.645,11.61-3.645c1.859,0,3.45,0.105,4.77,0.315
		c1.319,0.211,2.521,0.525,3.601,0.944v8.911c-1.742-0.48-3.812-0.72-6.211-0.72c-2.22,0-3.901,0.376-5.039,1.125
		c-1.141,0.751-1.711,2.025-1.711,3.825c0,1.979,0.631,3.346,1.89,4.095c1.26,0.751,3.151,1.125,5.67,1.125h5.04l0.45,8.91h-5.58
		c-5.1,0-7.65,2.07-7.65,6.21c0,2.04,0.914,3.586,2.745,4.635c1.829,1.05,4.665,1.575,8.505,1.575c3.9,0,6.779-0.81,8.641-2.43
		c1.859-1.62,2.789-3.96,2.789-7.02v-30.6h12.15v29.52c0,7.02-1.995,12.105-5.984,15.254
		C680.229,441.027,674.545,442.602,667.165,442.602"/>
	<path clip-path="url(#SVGID_6_)" fill="#FFFFFF" d="M718.104,441.701v-29.88c0-3.24-0.63-5.744-1.89-7.515
		c-1.259-1.769-3.78-2.655-7.56-2.655c-1.98,0-4.08,0.225-6.3,0.675c-2.22,0.45-4.2,1.006-5.94,1.665v-8.91
		c1.8-0.839,4.019-1.529,6.66-2.069c2.64-0.54,5.279-0.811,7.92-0.811c6.839,0,11.759,1.456,14.76,4.365
		c2.999,2.911,4.5,7.425,4.5,13.545v31.59H718.104z"/>
	<path clip-path="url(#SVGID_6_)" fill="#FFFFFF" d="M741.414,441.701v-15.479c0-2.76,0.464-5.206,1.395-7.335
		c0.929-2.129,2.775-3.615,5.535-4.456l-9.18-2.43v-11.61c2.459-2.099,5.744-3.989,9.855-5.669c4.109-1.68,8.805-2.521,14.084-2.521
		c4.861,0,9.015,0.63,12.465,1.891c3.45,1.259,6.09,3.36,7.92,6.299c1.83,2.941,2.746,6.93,2.746,11.97v29.34h-12.15v-29.609
		c0-3.781-0.886-6.465-2.654-8.056c-1.772-1.589-4.757-2.385-8.955-2.385c-2.702,0-5.176,0.391-7.426,1.17
		c-2.25,0.78-4.066,1.771-5.446,2.97v1.261l9.991,2.699v7.381c-2.401,0.599-4.005,1.574-4.815,2.924
		c-0.81,1.35-1.215,3.436-1.215,6.255v15.39H741.414z"/>
	<path clip-path="url(#SVGID_6_)" fill="#FFFFFF" d="M812.334,442.602c-3.061,0-5.881-0.495-8.461-1.485
		c-2.58-0.991-4.635-2.61-6.164-4.86c-1.53-2.25-2.295-5.234-2.295-8.955c0-4.86,1.649-8.596,4.949-11.205
		c3.299-2.61,8.039-3.915,14.221-3.915h13.77v-2.34c0-3-0.841-5.115-2.52-6.345c-1.682-1.229-4.65-1.845-8.91-1.845
		c-2.942,0-5.715,0.195-8.325,0.585c-2.611,0.39-5.206,1.006-7.786,1.844v-9.089c2.46-0.78,5.31-1.44,8.55-1.98
		c3.241-0.54,6.42-0.81,9.54-0.81c7.259,0,12.675,1.53,16.245,4.589c3.57,3.061,5.356,7.831,5.356,14.311v30.6h-12.15v-20.61h-13.05
		c-2.581,0-4.621,0.449-6.12,1.35c-1.5,0.9-2.25,2.519-2.25,4.86c0,2.22,0.659,3.75,1.98,4.59c1.318,0.841,3.539,1.26,6.659,1.26
		c1.14,0,2.265-0.059,3.375-0.18c1.111-0.12,2.055-0.3,2.835-0.54v8.91c-1.14,0.36-2.535,0.659-4.184,0.9
		C815.947,442.48,814.192,442.602,812.334,442.602"/>
	<path clip-path="url(#SVGID_6_)" fill="#FFFFFF" d="M869.482,442.602c-4.02,0-7.771-0.376-11.25-1.125
		c-3.48-0.75-6.42-1.634-8.819-2.655v-25.56h20.61l0.539,8.91h-9.629v9.81c1.139,0.36,2.504,0.645,4.094,0.854
		c1.59,0.211,3.105,0.316,4.546,0.316c4.919,0,8.37-1.17,10.349-3.51c1.98-2.34,2.97-6.359,2.97-12.061
		c0-4.079-0.525-7.274-1.574-9.584c-1.051-2.309-2.761-3.945-5.131-4.905c-2.371-0.959-5.595-1.44-9.674-1.44
		c-2.641,0-5.386,0.195-8.236,0.585c-2.85,0.39-5.595,1.006-8.234,1.844v-9.089c2.7-0.9,5.789-1.589,9.269-2.07
		c3.48-0.48,6.87-0.72,10.17-0.72c8.76,0,15.105,2.175,19.035,6.525c3.93,4.351,5.896,10.636,5.896,18.854
		c0,8.042-1.966,14.221-5.896,18.541C884.587,440.441,878.242,442.602,869.482,442.602"/>
	<path clip-path="url(#SVGID_6_)" fill="#FFFFFF" d="M921.143,442.602c-1.621,0-3.346-0.121-5.176-0.36
		c-1.83-0.241-3.435-0.57-4.814-0.991l-13.68-33.299h11.789l10.711,26.009c4.5,0,7.754-1.513,9.765-4.545
		c2.009-3.028,3.014-7.543,3.014-13.544c0-3.6-0.345-6.419-1.035-8.46c-0.689-2.039-1.814-3.495-3.375-4.365
		c-1.56-0.869-3.72-1.305-6.479-1.305h-3.691v-8.64h5.401c7.139,0,12.375,1.876,15.705,5.625c3.33,3.75,4.995,9.465,4.995,17.145
		c0,6.3-0.99,11.416-2.971,15.345c-1.979,3.93-4.695,6.811-8.144,8.64C929.706,441.688,925.702,442.602,921.143,442.602"/>
	<path clip-path="url(#SVGID_6_)" fill="#FFFFFF" d="M950.302,441.701v-48.6h12.15v14.76h12.06c3.119,0,5.266-0.675,6.437-2.025
		c1.169-1.35,1.754-3.405,1.754-6.164v-6.571h12.149v6.121c0,3-0.495,5.655-1.484,7.964c-0.99,2.311-2.806,3.976-5.445,4.995
		c2.52,0.96,4.244,2.446,5.175,4.456c0.93,2.01,1.396,4.335,1.396,6.974v18.09h-12.15v-16.74c0-3.06-0.585-5.188-1.755-6.39
		c-1.17-1.199-3.285-1.8-6.345-1.8h-11.79v24.93H950.302z"/>
	<path clip-path="url(#SVGID_6_)" fill="#FFFFFF" d="M1022.03,442.602c-5.22,0-9.33-1.575-12.33-4.726
		c-3.001-3.149-4.5-7.544-4.5-13.184v-31.59h12.15v30.87c0,3.3,0.733,5.655,2.205,7.065c1.469,1.411,3.645,2.115,6.524,2.115
		c2.279,0,4.5-0.48,6.66-1.441c2.16-0.959,3.898-2.159,5.22-3.599v-35.01h12.15v48.6h-11.16l-0.54-4.77
		c-2.16,1.74-4.59,3.12-7.29,4.14C1028.42,442.091,1025.389,442.602,1022.03,442.602"/>
	<rect x="1037.601" y="371.592" clip-path="url(#SVGID_6_)" fill="#FFFFFF" width="12.149" height="14.85"/>
	<path clip-path="url(#SVGID_6_)" fill="#FFFFFF" d="M1079.091,442.602c-4.021,0-7.771-0.376-11.25-1.125
		c-3.48-0.75-6.421-1.634-8.82-2.655v-25.56h20.61l0.54,8.91h-9.631v9.81c1.14,0.36,2.505,0.645,4.096,0.854
		c1.589,0.211,3.104,0.316,4.545,0.316c4.919,0,8.37-1.17,10.349-3.51c1.981-2.34,2.971-6.359,2.971-12.061
		c0-4.079-0.525-7.274-1.574-9.584c-1.051-2.309-2.761-3.945-5.13-4.905c-2.371-0.959-5.597-1.44-9.676-1.44
		c-2.641,0-5.386,0.195-8.234,0.585c-2.851,0.39-5.596,1.006-8.235,1.844v-9.089c2.7-0.9,5.79-1.589,9.271-2.07
		c3.479-0.48,6.869-0.72,10.17-0.72c8.759,0,15.104,2.175,19.034,6.525c3.93,4.351,5.896,10.636,5.896,18.854
		c0,8.042-1.966,14.221-5.896,18.541C1094.194,440.441,1087.85,442.602,1079.091,442.602"/>
	<path clip-path="url(#SVGID_6_)" fill="#FFFFFF" d="M1133.359,442.602c-4.261,0-8.16-0.481-11.7-1.44s-6.36-2.595-8.46-4.905
		c-2.101-2.309-3.15-5.414-3.15-9.315c0-2.1,0.496-4.095,1.485-5.986c0.99-1.889,2.534-3.404,4.636-4.544
		c-1.741-0.779-3.166-2.009-4.275-3.69c-1.111-1.68-1.665-3.72-1.665-6.12c0-4.739,1.499-8.325,4.5-10.755
		c3-2.431,6.87-3.645,11.61-3.645c1.858,0,3.449,0.105,4.77,0.315c1.319,0.211,2.521,0.525,3.601,0.944v8.911
		c-1.741-0.48-3.812-0.72-6.21-0.72c-2.221,0-3.901,0.376-5.04,1.125c-1.141,0.751-1.71,2.025-1.71,3.825
		c0,1.979,0.631,3.346,1.89,4.095c1.26,0.751,3.15,1.125,5.67,1.125h5.04l0.449,8.91h-5.579c-5.101,0-7.65,2.07-7.65,6.21
		c0,2.04,0.914,3.586,2.745,4.635c1.83,1.05,4.665,1.575,8.505,1.575c3.899,0,6.78-0.81,8.641-2.43c1.858-1.62,2.79-3.96,2.79-7.02
		v-30.6h12.149v29.52c0,7.02-1.995,12.105-5.984,15.254C1146.424,441.027,1140.739,442.602,1133.359,442.602"/>
	<path clip-path="url(#SVGID_6_)" fill="#FFFFFF" d="M1195.189,442.602c-3.361,0-6.39-0.511-9.09-1.53c-2.7-1.02-5.13-2.4-7.29-4.14
		l-0.54,4.77h-11.16v-48.6h12.15v35.01c1.318,1.44,3.074,2.64,5.265,3.599c2.188,0.961,4.394,1.441,6.615,1.441
		c2.88,0,5.054-0.704,6.524-2.115c1.47-1.41,2.205-3.765,2.205-7.065v-30.87h12.15v31.59c0,5.64-1.501,10.035-4.5,13.184
		C1204.519,441.027,1200.409,442.602,1195.189,442.602"/>
	<polygon clip-path="url(#SVGID_6_)" fill="#FFFFFF" points="1188.89,386.441 1188.89,372.131 1198.789,372.131 1198.789,378.162 
		1221.199,378.162 1220.75,386.441 	"/>
	<polygon clip-path="url(#SVGID_6_)" fill="#FFFFFF" points="1189.699,366.441 1189.699,358.432 1182.68,358.432 1182.68,350.151 
		1197.889,350.151 1197.889,358.162 1217.149,358.162 1216.699,366.441 	"/>
	<path clip-path="url(#SVGID_6_)" fill="#FFFFFF" d="M1243.609,442.602c-4.261,0-8.16-0.481-11.7-1.44s-6.36-2.595-8.46-4.905
		c-2.101-2.309-3.15-5.414-3.15-9.315c0-2.1,0.496-4.095,1.485-5.986c0.99-1.889,2.534-3.404,4.636-4.544
		c-1.741-0.779-3.166-2.009-4.275-3.69c-1.111-1.68-1.665-3.72-1.665-6.12c0-4.739,1.499-8.325,4.5-10.755
		c3-2.431,6.87-3.645,11.61-3.645c1.858,0,3.449,0.105,4.77,0.315c1.319,0.211,2.521,0.525,3.601,0.944v8.911
		c-1.741-0.48-3.812-0.72-6.21-0.72c-2.221,0-3.901,0.376-5.04,1.125c-1.141,0.751-1.71,2.025-1.71,3.825
		c0,1.979,0.631,3.346,1.89,4.095c1.26,0.751,3.15,1.125,5.67,1.125h5.04l0.449,8.91h-5.579c-5.101,0-7.65,2.07-7.65,6.21
		c0,2.04,0.914,3.586,2.745,4.635c1.83,1.05,4.665,1.575,8.505,1.575c3.899,0,6.78-0.81,8.641-2.43c1.858-1.62,2.79-3.96,2.79-7.02
		v-30.6h12.149v29.52c0,7.02-1.995,12.105-5.984,15.254C1256.674,441.027,1250.989,442.602,1243.609,442.602"/>
	<path clip-path="url(#SVGID_6_)" fill="#FFFFFF" d="M1289.6,442.602c-5.82,0-10.98-0.959-15.48-2.88v-9.27
		c1.859,0.78,3.87,1.425,6.03,1.935c2.16,0.51,4.349,0.765,6.57,0.765c5.639,0,9.675-1.17,12.104-3.51
		c2.431-2.34,3.646-6.42,3.646-12.24c0-5.82-1.215-9.901-3.646-12.24c-2.43-2.34-6.466-3.51-12.104-3.51
		c-2.222,0-4.41,0.24-6.57,0.72c-2.16,0.481-4.171,1.14-6.03,1.98v-9.271c4.5-1.918,9.66-2.879,15.48-2.879
		c8.22,0,14.34,2.146,18.36,6.435c4.019,4.29,6.029,10.545,6.029,18.765c0,8.221-2.011,14.475-6.029,18.764
		C1303.939,440.457,1297.819,442.602,1289.6,442.602"/>
	<rect x="1298.329" y="371.592" clip-path="url(#SVGID_6_)" fill="#FFFFFF" width="12.149" height="14.85"/>
	<path clip-path="url(#SVGID_6_)" fill="#FFFFFF" d="M1338.739,441.701v-29.88c0-3.24-0.63-5.744-1.892-7.515
		c-1.259-1.769-3.778-2.655-7.559-2.655c-1.98,0-4.081,0.225-6.3,0.675c-2.221,0.45-4.201,1.006-5.94,1.665v-8.91
		c1.799-0.839,4.02-1.529,6.66-2.069c2.639-0.54,5.279-0.811,7.92-0.811c6.839,0,11.758,1.456,14.76,4.365
		c3,2.911,4.5,7.425,4.5,13.545v31.59H1338.739z"/>
	<path clip-path="url(#SVGID_6_)" fill="#FFFFFF" d="M539.997,548.086v-28.8c0-6.84,2.16-12,6.48-15.48
		c4.32-3.479,10.44-5.22,18.36-5.22c7.86,0,13.95,1.741,18.27,5.22c4.321,3.48,6.48,8.64,6.48,15.48v28.8h-16.92v-29.25
		c0-2.46-0.646-4.395-1.935-5.805c-1.291-1.409-3.256-2.115-5.895-2.115c-2.76,0-4.77,0.691-6.029,2.07
		c-1.261,1.381-1.891,3.33-1.891,5.85v5.4c0.84-0.599,1.875-1.035,3.105-1.305c1.229-0.27,2.414-0.405,3.555-0.405h4.68l0.45,13.23
		h-5.31c-1.201,0-2.371,0.121-3.509,0.36c-1.141,0.241-2.131,0.601-2.971,1.08v10.89H539.997z"/>
	<polygon clip-path="url(#SVGID_6_)" fill="#FFFFFF" points="575.816,571.216 575.816,562.036 570.506,562.036 571.046,551.596 
		589.497,551.596 589.497,571.216 	"/>
	<path clip-path="url(#SVGID_6_)" fill="#FFFFFF" d="M644.846,548.986c-5.04,0-9.061-1.499-12.06-4.5c-3.001-3-4.5-7.229-4.5-12.69
		v-12.42c0-3.06-0.63-5.235-1.89-6.526c-1.26-1.289-3.571-1.934-6.93-1.934c-1.98,0-3.721,0.256-5.22,0.764
		c-1.501,0.511-2.821,1.186-3.96,2.026v0.719l9.45,2.97v7.921c-1.861,0.539-3.226,1.305-4.095,2.295
		c-0.87,0.989-1.305,2.445-1.305,4.364v2.341c0,1.86,0.93,2.789,2.79,2.789h3.69v10.98h-13.949c-2.881,0-5.176-0.885-6.886-2.655
		c-1.71-1.769-2.565-4.034-2.565-6.795v-5.849c0-2.34,0.509-4.515,1.53-6.526c1.019-2.009,2.729-3.404,5.13-4.184l-8.19-2.521
		v-12.779c2.7-2.039,6.105-3.915,10.215-5.625c4.109-1.71,8.894-2.565,14.355-2.565c8.759,0,15.044,1.77,18.855,5.309
		c3.809,3.541,5.715,8.521,5.715,14.941v11.16c0.059,2.281,0.524,3.945,1.395,4.995c0.869,1.05,2.385,1.575,4.545,1.575
		c1.56,0,3.045-0.329,4.455-0.99c1.409-0.66,2.534-1.47,3.375-2.431v-33.659h16.92v48.6h-15.66l-0.63-3.78
		c-1.86,1.381-3.96,2.506-6.3,3.375C650.786,548.55,648.026,548.986,644.846,548.986"/>
	<path clip-path="url(#SVGID_6_)" fill="#FFFFFF" d="M705.055,548.986c-2.04,0-4.065-0.181-6.075-0.54
		c-2.011-0.36-3.555-0.779-4.635-1.261l-5.311-14.309h-7.019l0.63-13.231h15.75l6.3,17.011c2.399-0.419,4.244-1.71,5.535-3.87
		c1.29-2.16,1.935-5.279,1.935-9.361c0-4.619-1.006-7.859-3.015-9.719c-2.011-1.86-5.596-2.79-10.755-2.79
		c-2.401,0-4.981,0.211-7.74,0.63c-2.76,0.42-5.431,0.99-8.01,1.71v-11.52c3-1.02,6.269-1.801,9.81-2.341
		c3.539-0.54,6.959-0.809,10.26-0.809c9.659,0,16.529,2.145,20.61,6.434c4.08,4.291,6.12,10.456,6.12,18.495
		c0,4.201-0.675,7.891-2.025,11.071c-1.35,3.18-3.195,5.836-5.535,7.964c-2.34,2.131-4.966,3.735-7.875,4.815
		C711.099,548.446,708.115,548.986,705.055,548.986"/>
	<path clip-path="url(#SVGID_6_)" fill="#FFFFFF" d="M733.944,520.816v-15.84h12.78v4.32h11.97l-0.54,11.52H733.944z
		 M733.944,544.126v-15.84h12.78v4.319h11.97l-0.54,11.521H733.944z"/>
	<path clip-path="url(#SVGID_6_)" fill="#FFFFFF" d="M775.344,548.086c-2.881,0-5.176-0.885-6.886-2.655
		c-1.71-1.769-2.564-4.034-2.564-6.795v-40.05c0-2.279,0.359-4.424,1.08-6.435c0.72-2.009,1.739-3.524,3.059-4.545h-11.339v-10.98
		h31.589v9.81c-2.76,0.781-4.695,2.295-5.804,4.545c-1.112,2.25-1.665,5.055-1.665,8.415v34.92c0,1.861,0.929,2.79,2.79,2.79h3.689
		v10.98H775.344z"/>
	<path clip-path="url(#SVGID_6_)" fill="#FFFFFF" d="M813.143,548.986c-4.08,0-7.71-0.781-10.89-2.341
		c-3.18-1.56-5.67-4.063-7.469-7.514c-1.8-3.45-2.701-8.025-2.701-13.725c0-8.641,2.25-15.27,6.75-19.891
		c4.5-4.619,11.37-6.929,20.611-6.929c6.059,0,10.979,0.945,14.76,2.835c3.78,1.889,6.554,4.35,8.325,7.379
		c1.768,3.031,2.654,6.287,2.654,9.766v29.52h-16.92v-27.991c0-2.819-0.6-5.053-1.8-6.705c-1.201-1.649-3.66-2.474-7.38-2.474
		c-3.419,0-5.894,1.14-7.424,3.42c-1.531,2.281-2.295,5.97-2.295,11.07c0,4.2,0.614,7.125,1.844,8.774
		c1.23,1.652,3.225,2.476,5.986,2.476c0.959,0,1.919-0.06,2.88-0.181c0.959-0.119,1.799-0.299,2.519-0.54v11.431
		c-1.14,0.48-2.474,0.869-4.005,1.17C817.058,548.836,815.243,548.986,813.143,548.986"/>
	<polygon clip-path="url(#SVGID_6_)" fill="#FFFFFF" points="820.792,494.446 820.792,486.885 813.862,486.885 813.862,475.996 
		831.502,475.996 831.502,483.555 850.402,483.555 849.772,494.446 	"/>
	<path clip-path="url(#SVGID_6_)" fill="#FFFFFF" d="M870.653,548.986c-3.721,0-7.261-0.271-10.62-0.811
		c-3.36-0.54-6-1.199-7.92-1.979v-12.87c2.219,0.96,4.71,1.755,7.47,2.385c2.759,0.629,5.34,0.945,7.74,0.945
		c2.939,0,4.95-0.194,6.03-0.585c1.08-0.39,1.62-1.095,1.62-2.115c0-1.32-0.855-2.324-2.565-3.015
		c-1.71-0.689-4.516-1.756-8.415-3.195c-4.14-1.56-7.26-3.375-9.36-5.446c-2.101-2.07-3.15-4.963-3.15-8.684
		c0-4.44,1.784-8.056,5.356-10.846c3.568-2.79,8.984-4.184,16.244-4.184c3,0,6.045,0.224,9.135,0.674
		c3.089,0.451,5.535,0.946,7.335,1.486v12.689c-1.921-0.839-4.11-1.469-6.57-1.889c-2.461-0.419-4.621-0.63-6.48-0.63
		c-2.281,0-4.14,0.179-5.579,0.54c-1.441,0.36-2.161,1.17-2.161,2.429c0,1.321,0.93,2.25,2.79,2.79c1.859,0.54,4.44,1.471,7.74,2.79
		c3.54,1.321,6.24,2.626,8.1,3.916c1.86,1.291,3.135,2.776,3.825,4.455c0.689,1.68,1.035,3.84,1.035,6.48
		c0,4.56-1.861,8.145-5.579,10.755C882.952,547.681,877.613,548.986,870.653,548.986"/>
	<polygon clip-path="url(#SVGID_6_)" fill="#FFFFFF" points="863.812,494.446 863.812,477.796 876.502,477.796 876.502,483.736 
		898.012,483.736 897.472,494.446 	"/>
	<path clip-path="url(#SVGID_6_)" fill="#FFFFFF" d="M923.483,548.986c-4.981,0-9.347-0.781-13.096-2.341
		c-3.75-1.56-6.66-3.944-8.729-7.154c-2.071-3.209-3.106-7.245-3.106-12.106v-27.899h16.92v28.619c0,3.001,0.645,5.176,1.936,6.526
		c1.289,1.349,3.314,2.025,6.075,2.025c2.819,0,4.859-0.676,6.119-2.025c1.261-1.35,1.891-3.525,1.891-6.526v-28.619h16.92v27.899
		c0,4.861-1.035,8.897-3.106,12.106c-2.069,3.21-4.979,5.595-8.729,7.154C932.827,548.205,928.462,548.986,923.483,548.986"/>
	<path clip-path="url(#SVGID_6_)" fill="#FFFFFF" d="M988.011,548.986c-3.181,0-6.03-0.437-8.55-1.306s-4.74-1.994-6.66-3.375
		l-0.63,3.78h-15.66v-48.6h16.92v33.659c0.84,0.961,2.025,1.771,3.556,2.431c1.529,0.661,3.133,0.99,4.814,0.99
		c2.279,0,3.93-0.525,4.95-1.575c1.02-1.05,1.53-2.714,1.53-4.995v-30.51h16.919v32.31c0,5.461-1.605,9.69-4.814,12.69
		C997.176,547.487,993.051,548.986,988.011,548.986"/>
	<polygon clip-path="url(#SVGID_6_)" fill="#FFFFFF" points="978.561,494.446 978.561,477.796 991.25,477.796 991.25,483.736 
		1012.761,483.736 1012.221,494.446 	"/>
	<path clip-path="url(#SVGID_6_)" fill="#FFFFFF" d="M1030.131,548.986c-5.04,0-9.105-1.499-12.195-4.5
		c-3.091-3-4.635-7.229-4.635-12.69v-32.31h16.92v30.51c0,2.281,0.51,3.945,1.53,4.995c1.02,1.05,2.669,1.575,4.95,1.575
		c1.739,0,3.359-0.329,4.859-0.99c1.499-0.66,2.67-1.47,3.51-2.431v-33.659h16.921v48.6h-15.66l-0.63-3.78
		c-1.86,1.381-4.126,2.506-6.795,3.375C1036.234,548.55,1033.311,548.986,1030.131,548.986"/>
	<path clip-path="url(#SVGID_6_)" fill="#FFFFFF" d="M1090.791,548.986c-4.261,0-8.355-0.392-12.285-1.17
		c-3.931-0.779-7.186-1.74-9.765-2.881v-25.83h22.68l0.63,11.07h-6.57v5.76c1.5,0.482,3.209,0.721,5.131,0.721
		c3.719,0,6.283-0.959,7.694-2.88c1.409-1.92,2.115-5.16,2.115-9.721c0-3.478-0.481-6.165-1.44-8.054
		c-0.961-1.89-2.461-3.209-4.5-3.96c-2.041-0.75-4.711-1.125-8.01-1.125c-2.52,0-5.31,0.211-8.37,0.63
		c-3.06,0.42-6,1.05-8.819,1.889v-11.699c3.119-1.02,6.629-1.801,10.529-2.341s7.471-0.809,10.711-0.809
		c9.418,0,16.304,2.145,20.654,6.434c4.35,4.291,6.525,10.636,6.525,19.035c0,8.161-2.115,14.356-6.346,18.585
		C1107.126,546.871,1100.27,548.986,1090.791,548.986"/>
	<path clip-path="url(#SVGID_6_)" fill="#FFFFFF" d="M1148.031,548.986c-7.861,0-14.056-1.364-18.585-4.096
		c-4.531-2.729-6.795-6.824-6.795-12.285c0-2.039,0.419-3.899,1.26-5.579c0.84-1.68,2.099-3.061,3.78-4.141
		c-1.381-0.838-2.536-2.099-3.465-3.78c-0.932-1.679-1.396-3.658-1.396-5.939c0-4.919,1.62-8.58,4.86-10.981
		c3.24-2.398,7.589-3.599,13.05-3.599c2.1,0,3.929,0.134,5.49,0.405c1.56,0.269,2.909,0.615,4.05,1.035v11.52
		c-1.681-0.419-3.451-0.63-5.311-0.63c-1.5,0-2.686,0.224-3.555,0.674c-0.87,0.451-1.305,1.336-1.305,2.656
		c0,1.381,0.419,2.295,1.26,2.745c0.84,0.45,2.01,0.675,3.51,0.675h4.5l0.54,10.799h-5.13c-3.24,0-4.859,1.381-4.859,4.14
		c0,1.321,0.569,2.326,1.71,3.016c1.139,0.69,3.179,1.035,6.118,1.035c5.641,0,8.461-2.22,8.461-6.66v-30.51h16.921v29.88
		c0,6.72-2.205,11.67-6.615,14.849C1162.116,547.396,1155.951,548.986,1148.031,548.986"/>
	<rect x="1156.13" y="479.236" clip-path="url(#SVGID_6_)" fill="#FFFFFF" width="16.92" height="15.21"/>
	<path clip-path="url(#SVGID_6_)" fill="#FFFFFF" d="M1196.539,548.086v-28.89c0-3-0.57-5.13-1.71-6.39
		c-1.14-1.26-3.149-1.89-6.029-1.89c-2.102,0-4.141,0.24-6.12,0.72c-1.98,0.481-3.812,1.051-5.49,1.71v-11.52
		c1.8-0.9,4.109-1.665,6.93-2.295c2.82-0.63,5.64-0.945,8.46-0.945c7.32,0,12.63,1.62,15.931,4.86
		c3.299,3.24,4.949,8.071,4.949,14.49v30.15H1196.539z"/>
	<path clip-path="url(#SVGID_6_)" fill="#FFFFFF" d="M1241.63,548.986c-1.86,0-3.931-0.136-6.21-0.405
		c-2.281-0.271-4.23-0.705-5.852-1.305l-12.96-32.311h16.562l8.729,21.691c2.64-0.3,4.681-1.605,6.12-3.915
		c1.44-2.31,2.16-5.745,2.16-10.306c0-3.899-0.706-6.494-2.115-7.784c-1.41-1.29-3.706-1.936-6.885-1.936h-3.42v-13.229h6.84
		c7.319,0,12.96,1.921,16.92,5.76c3.96,3.84,5.94,9.54,5.94,17.099c0,6.181-1.097,11.237-3.285,15.165
		c-2.191,3.931-5.22,6.827-9.09,8.686C1251.215,548.057,1246.729,548.986,1241.63,548.986"/>
	<path clip-path="url(#SVGID_6_)" fill="#FFFFFF" d="M1284.108,548.086c-2.881,0-5.176-0.885-6.886-2.655
		c-1.71-1.769-2.564-4.034-2.564-6.795v-40.05c0-2.279,0.359-4.424,1.08-6.435c0.72-2.009,1.739-3.524,3.059-4.545h-11.339v-10.98
		h31.589v9.81c-2.76,0.781-4.694,2.295-5.804,4.545c-1.112,2.25-1.665,5.055-1.665,8.415v34.92c0,1.861,0.93,2.79,2.79,2.79h3.689
		v10.98H1284.108z"/>
	<path clip-path="url(#SVGID_6_)" fill="#FFFFFF" d="M1320.018,548.986c-3.721,0-7.261-0.271-10.62-0.811
		c-3.36-0.54-6-1.199-7.92-1.979v-12.87c2.219,0.96,4.71,1.755,7.47,2.385c2.76,0.629,5.34,0.945,7.74,0.945
		c2.939,0,4.95-0.194,6.03-0.585c1.08-0.39,1.62-1.095,1.62-2.115c0-1.32-0.855-2.324-2.565-3.015
		c-1.71-0.689-4.516-1.756-8.415-3.195c-4.14-1.56-7.26-3.375-9.359-5.446c-2.102-2.07-3.15-4.963-3.15-8.684
		c0-4.44,1.784-8.056,5.355-10.846c3.568-2.79,8.984-4.184,16.244-4.184c3,0,6.045,0.224,9.135,0.674
		c3.09,0.451,5.535,0.946,7.336,1.486v12.689c-1.922-0.839-4.11-1.469-6.57-1.889c-2.461-0.419-4.621-0.63-6.48-0.63
		c-2.28,0-4.14,0.179-5.578,0.54c-1.441,0.36-2.161,1.17-2.161,2.429c0,1.321,0.93,2.25,2.79,2.79
		c1.858,0.54,4.439,1.471,7.739,2.79c3.54,1.321,6.24,2.626,8.101,3.916c1.859,1.291,3.135,2.776,3.824,4.455
		c0.689,1.68,1.035,3.84,1.035,6.48c0,4.56-1.86,8.145-5.578,10.755C1332.316,547.681,1326.978,548.986,1320.018,548.986"/>
	<path clip-path="url(#SVGID_6_)" fill="#FFFFFF" d="M1373.566,531.526v-1.62c0-2.521,0.479-4.575,1.44-6.165
		c0.959-1.589,2.431-3.254,4.409-4.995c1.62-1.44,3.061-2.624,4.32-3.555c1.26-0.929,2.264-1.859,3.015-2.79
		c0.75-0.929,1.125-2.085,1.125-3.465c0-1.919-0.765-3.285-2.295-4.095c-1.529-0.81-4.005-1.215-7.425-1.215
		c-2.641,0-5.146,0.315-7.515,0.945c-2.37,0.63-4.396,1.455-6.075,2.475v-14.04c2.34-1.199,5.039-2.129,8.1-2.79
		c3.061-0.659,6.51-0.99,10.351-0.99c7.14,0,12.614,1.53,16.425,4.59c3.81,3.06,5.715,7.26,5.715,12.6c0,3.301-0.63,6-1.89,8.1
		c-1.26,2.101-3.24,4.261-5.94,6.48c-2.04,1.681-3.84,3.181-5.399,4.5c-1.562,1.32-2.341,2.97-2.341,4.95v1.08H1373.566z
		 M1372.757,536.116h17.64v11.97h-17.64V536.116z"/>
</g>
</svg>
